<?xml version="1.0" encoding="utf-8"?>
<!-- Generator: Adobe Illustrator 23.0.4, SVG Export Plug-In . SVG Version: 6.00 Build 0)  -->
<svg version="1.1" id="レイヤー_1" xmlns="http://www.w3.org/2000/svg" xmlns:xlink="http://www.w3.org/1999/xlink" x="0px"
	 y="0px" viewBox="0 0 53.2 53.2" style="enable-background:new 0 0 53.2 53.2;" xml:space="preserve">
<style type="text/css">
	.st0{fill:#F98100;}
	.st1{fill:#FFFFFF;}
</style>
<title>アセット 5</title>
<g>
	<g id="レイヤー_2-2">
		<path class="st0" d="M50.2,0H3C1.3,0,0,1.3,0,3v47.2c0,1.7,1.3,3,3,3l47.2,0c1.7,0,3-1.3,3-3V3C53.2,1.3,51.9,0,50.2,0z"/>
	</g>
</g>
<g>
	<path class="st1" d="M24.8,8.8C19.1,14.3,9.9,19.8,9.5,20.1c-0.5,0.3-1.2,0.1-1.5-0.4c-0.3-0.5-0.1-1.2,0.4-1.5
		c0.1,0,9.4-5.6,14.9-11c0.5-0.4,1.2-0.4,1.6,0C25.3,7.6,25.3,8.3,24.8,8.8z M27.9,36.8c0.2,0.6-0.1,1.2-0.7,1.4
		c-0.3,0-5.7,1.9-11.7,3c-0.6,0.1-1.2-0.3-1.3-0.9c-0.1-0.6,0.3-1.2,0.9-1.3c1.1-0.2,2.2-0.4,3.2-0.7V20.6c0-0.7,0.5-1.2,1.3-1.2
		c0.7,0,1.2,0.5,1.2,1.2v0.5h7.8c0.6,0,1.1,0.5,1.1,1.1c0,0.6-0.5,1.1-1.1,1.1h-7.8v2.5h10v-7.3H19.1c-0.6,0-1.1-0.5-1.1-1.1
		c0-0.6,0.5-1.1,1.1-1.1h5.5v-3.5c0-0.7,0.5-1.2,1.2-1.2c0.7,0,1.3,0.5,1.3,1.2v3.5h4c0.3-0.2,0.5-0.3,0.8-0.3
		c0.7,0,1.2,0.5,1.2,1.2v10.2c0,0.7-0.5,1.2-1.2,1.2c-0.4,0-0.8-0.2-1-0.5H20.8v9.7c3.2-0.8,5.6-1.6,5.7-1.6
		C27.1,35.9,27.7,36.2,27.9,36.8z M45.2,42.9c-0.2,0.6-0.8,0.8-1.4,0.6C43.3,43.4,32,38.9,25.2,31c-0.4-0.5-0.3-1.2,0.1-1.6
		c0.5-0.4,1.1-0.3,1.6,0.1c6.4,7.5,17.5,11.9,17.6,12C45.1,41.7,45.4,42.4,45.2,42.9z M45.5,20.1c-0.3,0.5-1,0.8-1.5,0.5
		c-0.5-0.3-11.6-6.4-17.7-13c-0.4-0.5-0.4-1.1,0.1-1.6c0.4-0.4,1.1-0.4,1.6,0c5.9,6.3,17,12.4,17.1,12.5
		C45.6,18.9,45.8,19.6,45.5,20.1z M31.9,31.2c0,0,2.4-1.7,4.6-3.6c0.4-0.4,1.1-0.4,1.6,0c0.4,0.5,0.4,1.2-0.1,1.6
		c-2.2,2.1-4.6,3.7-4.8,3.8c-0.5,0.3-1.2,0.2-1.6-0.3C31.3,32.2,31.4,31.6,31.9,31.2z"/>
</g>
</svg>
