<?xml version="1.0" encoding="utf-8"?>
<!-- Generator: Adobe Illustrator 23.0.4, SVG Export Plug-In . SVG Version: 6.00 Build 0)  -->
<svg version="1.1" id="レイヤー_1" xmlns="http://www.w3.org/2000/svg" xmlns:xlink="http://www.w3.org/1999/xlink" x="0px"
	 y="0px" viewBox="0 0 53.2 53.2" style="enable-background:new 0 0 53.2 53.2;" xml:space="preserve">
<style type="text/css">
	.st0{fill:#FFFFFF;}
</style>
<title>アセット 5</title>
<g>
	<g id="レイヤー_2-2">
		<path class="st0" d="M50.2,0H3C1.3,0,0,1.3,0,3v47.2c0,1.7,1.3,3,3,3l47.2,0c1.7,0,3-1.3,3-3V3C53.2,1.3,51.9,0,50.2,0z"/>
	</g>
</g>
<g>
	<path d="M45.5,16.2v0.5c-2.6,0-3.7,0.9-6.7,8.6l-5.9,16.3h-0.5l-6-16.1l-5.4,16.1h-0.5l-8.5-22.1c-1-2.6-2.2-2.8-3.5-2.8v-0.5h9.7
		v0.5c-3.2,0-2.3,2.9-2.2,3.1l6.2,16.9l4-11.8l-1.9-5.4c-1-2.6-2.2-2.8-3.5-2.8v-0.5h9.7v0.5c-3.2,0-2.2,2.9-2.2,3.1l5.9,17
		l4.1-11.6c1-3.5,3-8.5-2-8.5v-0.5H45.5z"/>
</g>
</svg>
