<svg xmlns="http://www.w3.org/2000/svg" viewBox="0 0 53.21 53.21"><defs><style>.cls-1{fill:#4267b2;}.cls-2{fill:#fff;}</style></defs><title>アセット 5</title><g id="レイヤー_2" data-name="レイヤー 2"><g id="レイヤー_2-2" data-name="レイヤー 2"><path class="cls-1" d="M50.25,0H3A3,3,0,0,0,0,3V50.25a3,3,0,0,0,3,3H28.42V32.63H21.51V24.58h6.91V18.67c0-6.88,4.2-10.62,10.35-10.62A55.67,55.67,0,0,1,45,8.37v7.15H40.72c-3.33,0-4,1.59-4,3.92v5.12h8l-1,8.06H36.74V53.21H50.25a3,3,0,0,0,3-3V3A3,3,0,0,0,50.25,0Z"/><path id="f" class="cls-2" d="M36.64,53.06V32.55h6.92l1-8h-8V19.4c0-2.32.65-3.91,4-3.91h4.22V8.33A58.14,58.14,0,0,0,38.65,8C32.53,8,28.33,11.75,28.33,18.6v5.9H21.45v8h6.9V53.06Z"/></g></g></svg>