<?xml version="1.0" encoding="utf-8"?>
<!-- Generator: Adobe Illustrator 23.0.4, SVG Export Plug-In . SVG Version: 6.00 Build 0)  -->
<svg version="1.1" id="レイヤー_1" xmlns="http://www.w3.org/2000/svg" xmlns:xlink="http://www.w3.org/1999/xlink" x="0px"
	 y="0px" viewBox="0 0 53.2 53.2" style="enable-background:new 0 0 53.2 53.2;" xml:space="preserve">
<style type="text/css">
	.st0{fill:#FFFFFF;}
	.st1{fill:#231815;}
</style>
<title>アセット 5</title>
<g>
	<g id="レイヤー_2-2">
		<path class="st0" d="M50.2,0H3C1.3,0,0,1.3,0,3v47.2c0,1.7,1.3,3,3,3l47.2,0c1.7,0,3-1.3,3-3V3C53.2,1.3,51.9,0,50.2,0z"/>
	</g>
</g>
<g>
	<path class="st1" d="M26.6,8.2c6,0,6.7,0,9.1,0.1c2.2,0.1,3.4,0.5,4.2,0.8c1.1,0.4,1.8,0.9,2.6,1.7c0.8,0.8,1.3,1.5,1.7,2.6
		c0.3,0.8,0.7,2,0.8,4.2c0.1,2.4,0.1,3.1,0.1,9.1s0,6.7-0.1,9.1c-0.1,2.2-0.5,3.4-0.8,4.2c-0.4,1.1-0.9,1.8-1.7,2.6
		c-0.8,0.8-1.5,1.3-2.6,1.7c-0.8,0.3-2,0.7-4.2,0.8c-2.4,0.1-3.1,0.1-9.1,0.1s-6.7,0-9.1-0.1c-2.2-0.1-3.4-0.5-4.2-0.8
		c-1.1-0.4-1.8-0.9-2.6-1.7c-0.8-0.8-1.3-1.5-1.7-2.6c-0.3-0.8-0.7-2-0.8-4.2c-0.1-2.4-0.1-3.1-0.1-9.1s0-6.7,0.1-9.1
		c0.1-2.2,0.5-3.4,0.8-4.2c0.4-1.1,0.9-1.8,1.7-2.6c0.8-0.8,1.5-1.3,2.6-1.7c0.8-0.3,2-0.7,4.2-0.8C19.9,8.2,20.6,8.2,26.6,8.2
		 M26.6,4.1c-6.1,0-6.9,0-9.3,0.1c-2.4,0.1-4,0.5-5.5,1c-1.5,0.6-2.7,1.3-4,2.6c-1.3,1.3-2,2.5-2.6,4c-0.6,1.4-0.9,3.1-1,5.5
		c-0.1,2.4-0.1,3.2-0.1,9.3c0,6.1,0,6.9,0.1,9.3c0.1,2.4,0.5,4,1,5.5c0.6,1.5,1.3,2.7,2.6,4c1.3,1.3,2.5,2,4,2.6
		c1.4,0.6,3.1,0.9,5.5,1c2.4,0.1,3.2,0.1,9.3,0.1s6.9,0,9.3-0.1c2.4-0.1,4-0.5,5.5-1c1.5-0.6,2.7-1.3,4-2.6c1.3-1.3,2-2.5,2.6-4
		c0.6-1.4,0.9-3.1,1-5.5c0.1-2.4,0.1-3.2,0.1-9.3s0-6.9-0.1-9.3c-0.1-2.4-0.5-4-1-5.5c-0.6-1.5-1.3-2.7-2.6-4c-1.3-1.3-2.5-2-4-2.6
		c-1.4-0.6-3.1-0.9-5.5-1C33.5,4.2,32.7,4.1,26.6,4.1L26.6,4.1z"/>
	<path class="st1" d="M26.6,15.1c-6.4,0-11.6,5.2-11.6,11.6s5.2,11.6,11.6,11.6S38.2,33,38.2,26.6S33,15.1,26.6,15.1z M26.6,34.1
		c-4.1,0-7.5-3.4-7.5-7.5c0-4.1,3.4-7.5,7.5-7.5c4.1,0,7.5,3.4,7.5,7.5C34.1,30.8,30.8,34.1,26.6,34.1z"/>
	<circle class="st1" cx="38.6" cy="14.6" r="2.7"/>
</g>
</svg>
