<svg xmlns="http://www.w3.org/2000/svg" viewBox="0 0 196.66 196.66"><defs><style>.cls-1{fill:#8b3e00;}.cls-2{fill:#fff;}</style></defs><title>アセット 2</title><g id="レイヤー_2" data-name="レイヤー 2"><g id="レイヤー_1-2" data-name="レイヤー 1"><circle class="cls-1" cx="98.33" cy="98.33" r="98.33"/><path class="cls-2" d="M110.58,54.64c-3.41-.09-15.19,2.43-16.14,5.2s0,5.23,3.16,6.31a39.18,39.18,0,0,0,9.89,2.13c4,.46,5.05,3.34,4.06,6.69-.9,3-7.36,3.77-10.38,3.63-11.07-.51-21.71-1.19-32.63.45-1.8.28-3.83.72-4.68,2.09s.14,3.42,1.79,4.36,6.2,1.12,8.19,1.15c14,.19,33.58-1.45,51.9.19,3,.27,7.71,2.38,7.41,4.9-.29,2.3-5.78,3.79-8.51,3.87-6.4.17-24.09.14-33.4.43-5.75.17-4.74,1.29-4.74,1.29-8-2.58,20.07-2.82,29.12-3.07,2.73-.07,6.27-.74,6.55-3,.31-2.52-3.57-3.66-6.54-3.93-18.32-1.63-36.11,1.17-54.43-.47a14.14,14.14,0,0,1-5.69-1.32c-1.65-.94-2.7-2.86-1.78-4.36s2.87-1.81,4.68-2.09a170.56,170.56,0,0,1,33.13-1.71c3,.14,6.72.07,8.18-2.18,2-3-5.11-6-9.15-6.5s-5.82,0-9.32-1.8C78.33,65.38,71,57.65,78.4,55.14Z"/><path class="cls-2" d="M151,110.22a7.44,7.44,0,0,0-4.79-3,13.76,13.76,0,0,0-6.76.77,11,11,0,0,0,.94-2.55H58.48c0,1.66,12.14,28,34.18,32.69a3.92,3.92,0,0,1,.84,2.37,4,4,0,0,1-1,2.59c-7.39.27-12.65.95-12.65,1.74,0,1,8.78,1.86,19.6,1.86s19.59-.84,19.59-1.86c0-.79-5.26-1.47-12.65-1.74a4,4,0,0,1-1-2.59,3.87,3.87,0,0,1,.84-2.36,40,40,0,0,0,18.6-10.06c2.26-.69,4.6-1.28,6.4-1.65,2-.4,8.93-1.84,10.92-2.43,4.75-1.39,9-3,10.07-8.77A6.44,6.44,0,0,0,151,110.22Zm-2.39,5.6c-.79,4.92-5.34,5.75-10.74,7.34-1.89.55-3.89,1-5.81,1.35-1.54.31-3.09.64-4.64,1a68.58,68.58,0,0,0,9.72-13.07,8.73,8.73,0,0,1,7.2-1.7,6,6,0,0,1,3.42,1.68A5.12,5.12,0,0,1,148.58,115.82Z"/></g></g></svg>