<svg xmlns="http://www.w3.org/2000/svg" viewBox="0 0 196.66 196.66"><defs><style>.cls-1{fill:#ffa62e;}.cls-2{fill:#fff;}</style></defs><title>アセット 1</title><g id="レイヤー_2" data-name="レイヤー 2"><g id="レイヤー_1-2" data-name="レイヤー 1"><circle class="cls-1" cx="98.33" cy="98.33" r="98.33"/><path class="cls-2" d="M98.61,132.8a52.53,52.53,0,0,0,9.1-.8c-2.2,3.53-5.47,5.78-9.11,5.78s-6.91-2.25-9.11-5.78A52.75,52.75,0,0,0,98.61,132.8Zm0-34.86c-7.88,0-14.3,8.79-14.3,19.59a26.82,26.82,0,0,0,.33,4.15,55.22,55.22,0,0,0,27.94,0,25.77,25.77,0,0,0,.33-4.16C112.9,106.73,106.49,97.94,98.6,97.94Zm0,42.63a14.16,14.16,0,0,1-9.58-4H78.92V154.2a7.31,7.31,0,0,0,7.31,7.31h24a7.31,7.31,0,0,0,7.32-7.31V136.61h-9.41A14.14,14.14,0,0,1,98.6,140.57Zm14.85-72.93s-4.21-13.17-5.76-18.3l-1.82-18.9h-.76V29h.76V28h-.76v-.55h.36v-.1h.76V25.69A2.21,2.21,0,0,0,104,23.48H92.2A2.21,2.21,0,0,0,90,25.69v1.63h.76v.1h.64V28h-.76v1h.76v1.44h-.76l-1.82,18.9c-1.55,5.13-5.76,18.3-5.76,18.3a23.43,23.43,0,0,0-4.14,13.3V98.09H89.45a13.46,13.46,0,0,1,18.3,0h9.84V80.94A23.43,23.43,0,0,0,113.45,67.64Zm-9-41.22H91.76v-.1H91v-.63a1.21,1.21,0,0,1,1.2-1.21H104a1.21,1.21,0,0,1,1.21,1.21v.63h-.76Zm-7.12,103H97c-.1.34-.19.68-.29,1-.68,0-1.37-.07-2-.13,0-.65.11-1.32.18-2.05.38,0,.77.07,1.15.09l.06.7.34,0c0-.56.05-1.12.08-1.68h-.32L96,128,94.83,128c.06-.68.12-1.32.19-1.95.55,0,1.11.09,1.67.11.06.33.12.66.19,1h.37v-1.27a31.88,31.88,0,0,1-3.65-.3l0,.23.65.16c-.06.64-.14,1.3-.22,1.94l0,.33c-.08.66-.15,1.31-.24,1.94l-.76,0,0,.23a35.9,35.9,0,0,0,4.38.35C97.32,130.27,97.33,129.84,97.35,129.4Zm5.05,1c-.05-.43-.09-.87-.14-1.3l-.39,0c-.05.35-.09.7-.14,1-.68.07-1.37.12-2.06.16,0-.65-.06-1.32-.1-2,.39,0,.77,0,1.15-.08,0,.23.11.46.16.69l.34,0-.16-1.67-.32,0c0,.24,0,.48,0,.72l-1.13.07c0-.68-.06-1.33-.08-2l1.67-.12c.1.32.21.63.32,1l.37,0c-.06-.42-.12-.84-.17-1.26a32.08,32.08,0,0,1-3.66.21v.24l.67.07c0,.64,0,1.3,0,2v.34c0,.66,0,1.31,0,2l-.76.08v.24A35.8,35.8,0,0,0,102.4,130.45Zm5.67-1.41-.65.13c-.22-.33-.43-.66-.64-1a1.16,1.16,0,0,0-1.25-.68c.92-.37,1.2-1,1-1.52-.22-.77-1-1-2-.8-.7.15-1.41.27-2.11.37l0,.24.67,0c.12.63.23,1.28.33,1.92l.06.34c.1.65.21,1.29.3,1.92l-.74.19,0,.24c.81-.12,1.62-.26,2.42-.43l0-.23-.77.08c-.13-.63-.25-1.26-.38-1.93l.4-.08c.63-.13.89,0,1.17.5.18.34.37.67.56,1s.47.42,1,.27a2.3,2.3,0,0,0,.66-.27C108.12,129.2,108.1,129.12,108.07,129Zm-3.21-1.57-.59.12c-.14-.75-.26-1.38-.37-2l.58-.11c.74-.16,1.17.1,1.32.71S105.67,127.3,104.86,127.47Zm-12.16-.88c.11-.67-.34-1.23-1.41-1.46-.7-.15-1.4-.33-2.09-.53,0,.08,0,.16-.07.23l.63.25c-.15.62-.32,1.25-.49,1.87a2.81,2.81,0,0,1-.08.31c-.17.65-.34,1.29-.53,1.92l-.75-.14c0,.08,0,.16-.07.23.76.22,1.51.41,2.28.58,1.7.37,2.4-.24,2.49-.88s-.3-1.15-1.38-1.49C92.21,127.5,92.62,127.09,92.7,126.59Zm-1,2.24c-.12.67-.7.94-1.67.73l-.53-.13c.15-.65.31-1.3.49-2.05l.42.1C91.46,127.71,91.86,128.13,91.73,128.83Zm.2-2.35c-.12.66-.59.92-1.47.73l-.38-.09c.16-.64.31-1.27.46-1.88l.47.11C91.76,125.52,92.05,125.86,91.93,126.48Zm-12,3.89-.48-.13,2.27-8.32h.07a30,30,0,0,1-.32-4.39,27.29,27.29,0,0,1,5.26-16.6H78.92V133.7h7.52a23.13,23.13,0,0,1-1.39-2.14C83.35,131.23,81.65,130.83,80,130.37Zm30.46-29.43a27.29,27.29,0,0,1,5.26,16.6,30.28,30.28,0,0,1-.32,4.4l.09,0,2,8.4-.19.05c-1.69.47-3.4.86-5.12,1.19a20.1,20.1,0,0,1-1.38,2.14h6.83V100.94Z"/></g></g></svg>