<svg xmlns="http://www.w3.org/2000/svg" viewBox="0 0 130.5 130.5"><defs><style>.cls-1{fill:#ffa62e;}.cls-2{font-size:23px;fill:#f9d48c;font-family:Quicksand-Medium, Quicksand Medium;font-weight:500;letter-spacing:0.07em;}.cls-3{letter-spacing:0.06em;}.cls-4{fill:#fff;}</style></defs><title>アセット 5</title><g id="レイヤー_2" data-name="レイヤー 2"><g id="レイヤー_1-2" data-name="レイヤー 1"><rect class="cls-1" width="130.5" height="130.5" rx="16.74"/><text class="cls-2" transform="translate(34.22 40.08)">Bir<tspan class="cls-3" x="34.57" y="0">r</tspan><tspan x="45.4" y="0">a</tspan></text><path class="cls-4" d="M65.43,102.91a26.88,26.88,0,0,0,4.65-.41,5.15,5.15,0,0,1-9.31,0A27,27,0,0,0,65.43,102.91Zm0-17.83c-4,0-7.31,4.5-7.31,10a14.58,14.58,0,0,0,.16,2.12,28.13,28.13,0,0,0,14.29,0,13.29,13.29,0,0,0,.17-2.12C72.74,89.58,69.46,85.08,65.43,85.08Zm0,21.8a7.23,7.23,0,0,1-4.9-2H55.36v9a3.75,3.75,0,0,0,3.74,3.74H71.4a3.75,3.75,0,0,0,3.74-3.74v-9H70.32A7.21,7.21,0,0,1,65.43,106.88ZM73,69.59s-2.16-6.73-3-9.35l-.93-9.67h-.38v-.73h.38v-.53h-.38V49h.18V49h.39v-.84A1.13,1.13,0,0,0,68.2,47h-6A1.12,1.12,0,0,0,61,48.14V49h.39V49h.32v.28h-.38v.53h.38v.73h-.38l-.93,9.67c-.8,2.62-3,9.35-3,9.35a12,12,0,0,0-2.12,6.8v8.77h5.39a6.87,6.87,0,0,1,9.36,0h5V76.39A12,12,0,0,0,73,69.59ZM68.43,48.52h-6.5v-.05h-.39v-.33a.61.61,0,0,1,.62-.61h6a.61.61,0,0,1,.62.61v.33h-.39Zm-3.64,52.65h-.2l-.15.51c-.35,0-.7,0-1-.07,0-.33.06-.67.1-1l.58,0,0,.36h.18l0-.86h-.17c0,.12-.05.24-.07.36l-.58,0c0-.35.06-.68.1-1,.28,0,.57,0,.85.06,0,.17.06.34.1.51h.18c0-.21,0-.43,0-.65a14.58,14.58,0,0,1-1.87-.15l0,.12.34.08c0,.33-.07.66-.11,1l0,.17c0,.34-.08.67-.13,1h-.39l0,.12a21.34,21.34,0,0,0,2.24.18Zm2.58.53c0-.22-.05-.44-.07-.66l-.2,0c0,.18,0,.36-.07.53-.35,0-.7.07-1,.08,0-.33,0-.67-.06-1l.59,0a3.59,3.59,0,0,1,.08.35l.17,0-.07-.85h-.17c0,.13,0,.25,0,.37l-.58,0c0-.35,0-.68,0-1l.86-.07c0,.17.11.33.17.49l.18,0c0-.21-.06-.43-.08-.64a16.89,16.89,0,0,1-1.87.11v.12l.34,0c0,.33,0,.67,0,1v.17c0,.34,0,.67,0,1l-.38,0v.12A18.71,18.71,0,0,0,67.37,101.7Zm2.9-.71-.34.06-.32-.51a.61.61,0,0,0-.64-.35c.47-.19.61-.5.54-.78s-.49-.52-1.05-.4l-1.08.19,0,.12.34,0c.06.33.11.66.17,1l0,.17.15,1-.38.1,0,.12c.41-.06.82-.13,1.23-.22l0-.12-.4,0c-.06-.32-.12-.64-.19-1l.21,0c.32-.06.45,0,.59.26l.29.51c.09.18.24.22.53.14a1.2,1.2,0,0,0,.34-.14Zm-1.64-.81-.3.06c-.07-.38-.14-.7-.19-1l.29-.06c.38-.08.6,0,.68.37A.52.52,0,0,1,68.63,100.18Zm-6.22-.45c.06-.34-.17-.63-.72-.74-.36-.08-.72-.17-1.07-.27l0,.11.32.13c-.08.32-.17.64-.25,1l0,.16-.27,1L60,101l0,.11c.38.11.77.21,1.16.3.87.19,1.23-.12,1.28-.45s-.16-.59-.71-.76C62.16,100.2,62.37,100,62.41,99.73Zm-.49,1.15c-.06.34-.36.48-.86.37l-.27-.06.25-1,.22,0C61.78,100.3,62,100.52,61.92,100.88Zm.1-1.2c-.06.33-.31.47-.75.37l-.2,0c.08-.33.16-.64.24-1l.23.06C61.93,99.18,62.08,99.36,62,99.68Zm-6.12,2-.25-.07,1.17-4.26h0a16.55,16.55,0,0,1-.16-2.25,13.91,13.91,0,0,1,2.69-8.48h-4v16.75h3.85a12.19,12.19,0,0,1-.71-1.1C57.63,102.1,56.76,101.9,55.9,101.67Zm15.58-15a14,14,0,0,1,2.69,8.48A15.21,15.21,0,0,1,74,97.36l0,0,1,4.3-.1,0c-.87.23-1.74.43-2.62.6a10.34,10.34,0,0,1-.71,1.1h3.5V86.62Z"/></g></g></svg>