<svg xmlns="http://www.w3.org/2000/svg" viewBox="0 0 130.5 130.5"><defs><style>.cls-1{fill:#8b3e00;}.cls-2{font-size:23px;fill:#f9d48c;font-family:Quicksand-Medium, Quicksand Medium;font-weight:500;letter-spacing:0.07em;}.cls-3{letter-spacing:-0.05em;}.cls-4{letter-spacing:0.07em;}.cls-5{fill:#fff;}</style></defs><title>アセット 7</title><g id="レイヤー_2" data-name="レイヤー 2"><g id="レイヤー_1-2" data-name="レイヤー 1"><rect class="cls-1" width="130.5" height="130.5" rx="16.74"/><text class="cls-2" transform="translate(7.52 40.08)">Cafe&amp;<tspan class="cls-3" x="74.96" y="0">T</tspan><tspan class="cls-4" x="88" y="0">e</tspan><tspan x="102.81" y="0">a</tspan></text><path class="cls-5" d="M71.57,60.66c-1.74,0-7.76,1.25-8.25,2.66a2.34,2.34,0,0,0,1.62,3.23,19.78,19.78,0,0,0,5,1.09c2.07.23,2.58,1.7,2.08,3.42-.46,1.56-3.76,1.92-5.31,1.85-5.66-.26-11.1-.6-16.68.24a3.33,3.33,0,0,0-2.39,1.06,1.7,1.7,0,0,0,.91,2.23,12.25,12.25,0,0,0,4.19.59c7.15.1,17.17-.74,26.53.1,1.52.13,4,1.22,3.79,2.5s-3,1.94-4.35,2c-3.27.09-12.31.07-17.07.22-2.94.09-2.43.66-2.43.66-4.06-1.32,10.26-1.44,14.89-1.57,1.39,0,3.2-.37,3.35-1.55s-1.83-1.87-3.35-2c-9.36-.84-18.46.6-27.82-.24a7.19,7.19,0,0,1-2.91-.68,1.7,1.7,0,0,1-.91-2.23,3.33,3.33,0,0,1,2.39-1.06,87.19,87.19,0,0,1,16.94-.88c1.54.07,3.44,0,4.18-1.11,1-1.55-2.61-3.09-4.68-3.33s-3,0-4.76-.92c-1.5-.75-5.26-4.7-1.46-6Z"/><path class="cls-5" d="M92.22,89.08a3.8,3.8,0,0,0-2.45-1.52,6.91,6.91,0,0,0-3.45.4,5.34,5.34,0,0,0,.48-1.31H44.93c0,.85,6.22,14.32,17.48,16.72a2,2,0,0,1,.43,1.21,2,2,0,0,1-.52,1.32c-3.78.14-6.47.49-6.47.89s4.48.95,10,.95,10-.43,10-.95-2.68-.75-6.46-.89a2,2,0,0,1-.53-1.32,2,2,0,0,1,.43-1.21,20.37,20.37,0,0,0,9.51-5.14c1.15-.36,2.35-.66,3.27-.85s4.57-.94,5.59-1.24c2.42-.71,4.62-1.52,5.14-4.48A3.3,3.3,0,0,0,92.22,89.08ZM91,92c-.4,2.51-2.73,2.93-5.49,3.74-1,.29-2,.5-3,.7-.78.16-1.58.32-2.37.53a35.46,35.46,0,0,0,5-6.68,4.41,4.41,0,0,1,3.68-.87,3.09,3.09,0,0,1,1.75.86A2.6,2.6,0,0,1,91,92Z"/></g></g></svg>