<svg xmlns="http://www.w3.org/2000/svg" viewBox="0 0 130.5 130.5"><defs><style>.cls-1{fill:#ff4d17;}.cls-2{font-size:23px;fill:#f9d48c;font-family:Quicksand-Medium, Quicksand Medium;font-weight:500;letter-spacing:0.07em;}.cls-3{letter-spacing:0.07em;}.cls-4{letter-spacing:0.07em;}.cls-5{letter-spacing:0.07em;}.cls-6{fill:#fff;}</style></defs><title>アセット 6</title><g id="レイヤー_2" data-name="レイヤー 2"><g id="レイヤー_1-2" data-name="レイヤー 1"><rect class="cls-1" width="130.5" height="130.5" rx="16.74"/><text class="cls-2" transform="translate(12.92 40.08)">B<tspan class="cls-3" x="16.61" y="0">e</tspan><tspan class="cls-4" x="31.21" y="0">v</tspan><tspan class="cls-5" x="45.38" y="0">anda</tspan></text><path class="cls-6" d="M50.63,62.34a8,8,0,0,1,3.23-2.48.44.44,0,0,1,.6.3l1.25,4.92a.43.43,0,0,1-.64.48L50.75,63A.45.45,0,0,1,50.63,62.34Zm3.74,5a.44.44,0,0,0,.12-.8L50.19,64a.44.44,0,0,0-.63.22,7.82,7.82,0,0,0-.52,4,.43.43,0,0,0,.54.37Zm4.69-1.19L64,64.88a.44.44,0,0,0,.3-.59A7.81,7.81,0,0,0,61.85,61a.44.44,0,0,0-.66.11l-2.61,4.4A.44.44,0,0,0,59.06,66.14ZM56.81,64.8a.44.44,0,0,0,.8.11l2.61-4.4a.44.44,0,0,0-.21-.63,7.81,7.81,0,0,0-4.08-.56.44.44,0,0,0-.38.54Zm-2.16,3.63-4.77,1.21a.45.45,0,0,0-.3.6A7.94,7.94,0,0,0,52,73.4a.43.43,0,0,0,.65-.11l2.51-4.22A.44.44,0,0,0,54.65,68.43Zm21.1,1.32h5.52l-3.52,45.43h-18l-2-38.45a9.58,9.58,0,1,1,8.4-7H74l.86-9.23,7.16-11.14,1.12,1.26L76.56,61Zm-18.1,6.44v-1.1a8,8,0,0,1-3.84-.59.45.45,0,0,1-.22-.63l2.51-4.22a.44.44,0,0,1,.8.11l.59,2.33-.12-2.34h.69L58,69.49a.44.44,0,0,1,.65-.49l1.26.75h2.21L59.23,68a.44.44,0,0,1,.11-.8L64.26,66a.44.44,0,0,1,.55.38,7.87,7.87,0,0,1-.39,3.39h1.24a9.17,9.17,0,0,0-4-10.37A9.6,9.6,0,0,0,49,62.75c-2.46,4.13-.73,9.89,3.4,12.34A8.75,8.75,0,0,0,57.65,76.19Z"/></g></g></svg>