<svg xmlns="http://www.w3.org/2000/svg" viewBox="0 0 196.66 196.66"><defs><style>.cls-1{fill:#ff4d17;}.cls-2{fill:#fff;}</style></defs><title>アセット 3</title><g id="レイヤー_2" data-name="レイヤー 2"><g id="レイヤー_1-2" data-name="レイヤー 1"><circle class="cls-1" cx="98.33" cy="98.33" r="98.33"/><path class="cls-2" d="M69.73,53.46a15.5,15.5,0,0,1,6.33-4.86.87.87,0,0,1,1.17.58l2.45,9.63a.86.86,0,0,1-1.27.94l-8.44-5A.88.88,0,0,1,69.73,53.46Zm7.33,9.76a.86.86,0,0,0,.22-1.57l-8.4-5a.87.87,0,0,0-1.24.43,15.49,15.49,0,0,0-1,7.78.86.86,0,0,0,1.07.73Zm9.17-2.34,9.66-2.46a.87.87,0,0,0,.58-1.16,15.52,15.52,0,0,0-4.8-6.48.87.87,0,0,0-1.28.23l-5.11,8.6A.86.86,0,0,0,86.23,60.88Zm-4.41-2.62a.85.85,0,0,0,1.56.23l5.11-8.61a.86.86,0,0,0-.41-1.23,15.36,15.36,0,0,0-8-1.11.86.86,0,0,0-.73,1.06Zm-4.22,7.1-9.34,2.38a.85.85,0,0,0-.57,1.17,15.48,15.48,0,0,0,4.68,6.19.87.87,0,0,0,1.28-.23l4.9-8.25A.85.85,0,0,0,77.6,65.36Zm41.26,2.58h10.81l-6.9,88.87H87.53L83.64,81.6a18.74,18.74,0,1,1,16.43-13.66h15.44l1.67-18,14-21.79,2.18,2.47L120.45,50.73Zm-35.4,12.6,0-2.14A15.53,15.53,0,0,1,76,77.23.86.86,0,0,1,75.55,76l4.9-8.25A.85.85,0,0,1,82,68l1.16,4.54-.23-4.58h1.35l-.13-.51a.86.86,0,0,1,1.26-1l2.46,1.46h4.33l-5.66-3.36A.85.85,0,0,1,86.78,63l9.62-2.45a.87.87,0,0,1,1.07.75,15.47,15.47,0,0,1-.76,6.62h2.42c2.26-7.33-.84-16.24-7.77-20.28-8.55-5-20.06-1.48-24.86,6.6s-1.42,19.33,6.66,24.13A17,17,0,0,0,83.46,80.54Z"/></g></g></svg>