<svg xmlns="http://www.w3.org/2000/svg" viewBox="0 0 568.41 56"><defs><style>.cls-1{fill:#fff;}</style></defs><title>アセット 3</title><g id="レイヤー_2" data-name="レイヤー 2"><g id="レイヤー_1-2" data-name="レイヤー 1"><path class="cls-1" d="M0,26.59A23.34,23.34,0,0,0,23.34,49.94V3.25A23.34,23.34,0,0,0,0,26.59Zm7.86-12a.74.74,0,0,1,1,0l8.49,8.49a.73.73,0,0,1-.52,1.25H4.37a.74.74,0,0,1-.73-.81A15.57,15.57,0,0,1,7.86,14.61ZM7.74,38.42a15.58,15.58,0,0,1-4.13-9.06.74.74,0,0,1,.74-.79H16.87a.73.73,0,0,1,.52,1.25l-8.6,8.6A.73.73,0,0,1,7.74,38.42Zm12,4.79A.73.73,0,0,1,19,44a15.57,15.57,0,0,1-8.19-2.81A.73.73,0,0,1,10.73,40l7.77-7.77a.73.73,0,0,1,1.25.52Zm0-23.06a.74.74,0,0,1-1.26.52L10.88,13A.74.74,0,0,1,11,11.92a15.48,15.48,0,0,1,8-2.7.74.74,0,0,1,.77.74Zm8.5,22V13.88h8.78V7h494.3v6.85h8.79V42.12h-8.79V49H37.05V42.12ZM568.41,26.59A23.35,23.35,0,0,0,545.06,3.25V49.94A23.35,23.35,0,0,0,568.41,26.59Zm-7.86,12a.73.73,0,0,1-1,0L551,30.09a.73.73,0,0,1,.52-1.25H564a.73.73,0,0,1,.74.8A15.54,15.54,0,0,1,560.55,38.57Zm.12-23.8a15.54,15.54,0,0,1,4.12,9.05.73.73,0,0,1-.73.8H551.54a.73.73,0,0,1-.52-1.25l8.6-8.6A.73.73,0,0,1,560.67,14.77Zm-12-4.79a.74.74,0,0,1,.76-.74,15.54,15.54,0,0,1,8.18,2.81.73.73,0,0,1,.09,1.11l-7.77,7.77a.74.74,0,0,1-1.26-.52Zm0,23.05a.73.73,0,0,1,1.25-.51l7.63,7.62a.73.73,0,0,1-.09,1.12,15.49,15.49,0,0,1-8,2.71.74.74,0,0,1-.76-.74ZM532.35,6H36.05v6.85H26.93V0H541.48V12.88h-9.13ZM36.05,43.12V50h496.3V43.12h9.13V56H26.93V43.12Z"/></g></g></svg>