<svg xmlns="http://www.w3.org/2000/svg" viewBox="0 0 304.68 82.37"><defs><style>.cls-1,.cls-2{fill:#fff;}.cls-2{stroke:#d3cccb;stroke-miterlimit:10;}</style></defs><title>アセット 8</title><g id="レイヤー_2" data-name="レイヤー 2"><g id="レイヤー_1-2" data-name="レイヤー 1"><rect class="cls-1" x="28.27" y="7.13" width="248.15" height="68.87"/><path class="cls-1" d="M0,41.84A23.34,23.34,0,0,0,23.34,65.19V18.5A23.34,23.34,0,0,0,0,41.84Zm7.86-12a.74.74,0,0,1,1,0l8.49,8.49a.73.73,0,0,1-.52,1.25H4.37a.74.74,0,0,1-.73-.81A15.57,15.57,0,0,1,7.86,29.86ZM7.74,53.67a15.58,15.58,0,0,1-4.13-9.06.74.74,0,0,1,.74-.79H16.87a.73.73,0,0,1,.52,1.25l-8.6,8.6A.73.73,0,0,1,7.74,53.67Zm12,4.79a.73.73,0,0,1-.75.74,15.57,15.57,0,0,1-8.19-2.81.73.73,0,0,1-.08-1.11l7.77-7.77a.73.73,0,0,1,1.25.52Zm0-23.06a.74.74,0,0,1-1.26.52l-7.63-7.63A.74.74,0,0,1,11,27.17a15.48,15.48,0,0,1,8-2.7.74.74,0,0,1,.77.74Z"/><polygon class="cls-2" points="268.12 0.5 36.55 0.5 26.43 0.5 26.43 7.53 26.43 14.38 36.55 14.38 36.55 7.53 268.12 7.53 268.12 14.38 278.25 14.38 278.25 7.53 278.25 0.5 268.12 0.5"/><polygon class="cls-2" points="268.12 81.88 36.55 81.88 26.43 81.88 26.43 74.85 26.43 68 36.55 68 36.55 74.85 268.12 74.85 268.12 68 278.25 68 278.25 74.85 278.25 81.88 268.12 81.88"/><path class="cls-1" d="M304.68,41.84A23.34,23.34,0,0,0,281.34,18.5V65.19A23.34,23.34,0,0,0,304.68,41.84Zm-7.86,12a.73.73,0,0,1-1.05,0l-8.48-8.48a.73.73,0,0,1,.52-1.25h12.5a.73.73,0,0,1,.73.8A15.54,15.54,0,0,1,296.82,53.82Zm.12-23.8a15.55,15.55,0,0,1,4.13,9.05.74.74,0,0,1-.74.8H287.81a.73.73,0,0,1-.52-1.25l8.6-8.6A.73.73,0,0,1,296.94,30Zm-12-4.79a.73.73,0,0,1,.75-.74,15.57,15.57,0,0,1,8.19,2.81.73.73,0,0,1,.08,1.11l-7.77,7.77a.73.73,0,0,1-1.25-.52Zm0,23.05a.73.73,0,0,1,1.26-.51l7.63,7.62a.74.74,0,0,1-.09,1.12,15.49,15.49,0,0,1-8,2.71.74.74,0,0,1-.76-.74Z"/></g></g></svg>