<svg xmlns="http://www.w3.org/2000/svg" viewBox="0 0 350.94 35.63"><defs><style>.cls-1{fill:#fff;}</style></defs><title>アセット 10</title><g id="レイヤー_2" data-name="レイヤー 2"><g id="レイヤー_1-2" data-name="レイヤー 1"><polygon class="cls-1" points="350.94 13.69 330.87 13.69 337.08 26.07 317.99 35.63 350.94 35.63 345.05 25.39 350.94 13.69"/><polygon class="cls-1" points="317.49 27.19 317.37 33.48 330.94 27.19 317.49 27.19"/><polygon class="cls-1" points="16.81 25.31 26.38 25.31 324.78 25.31 334.34 25.31 328.01 12.66 334.34 0 324.78 0 26.38 0 16.81 0 23.14 12.66 16.81 25.31"/><polygon class="cls-1" points="20.07 13.69 0 13.69 5.88 25.39 0 35.63 32.95 35.63 13.86 26.07 20.07 13.69"/><polygon class="cls-1" points="20 27.19 33.56 33.48 33.45 27.19 20 27.19"/></g></g></svg>