<svg xmlns="http://www.w3.org/2000/svg" viewBox="0 0 295.28 128.1"><defs><style>.cls-1{fill:#ffb13d;}</style></defs><title>アセット 2</title><g id="レイヤー_2" data-name="レイヤー 2"><g id="レイヤー_1-2" data-name="レイヤー 1"><path class="cls-1" d="M103.88,92.79c-39,0-79.12-7.67-103.88-21.23l.48-.88C35.92,90.09,103,97.36,153.1,87.23,204,77,247.6,55.11,272.87,27.31c7-7.76,15-16.55,15.15-27.31h1c-.12,11.14-8.6,20.47-15.41,28-25.41,28-69.26,49.91-120.31,60.23A253.05,253.05,0,0,1,103.88,92.79Z"/><path class="cls-1" d="M139,128.1,115.23,92.38l40.29-3.89ZM117,93.21,138.8,126,154,89.65Z"/><polygon class="cls-1" points="197.72 114.08 204.14 73.44 167.48 86.18 197.72 114.08"/><path class="cls-1" d="M249.12,92.17l-36.24-23,35.25-19.92ZM214.83,69.23l33.25,21.09L247.17,51Z"/><polygon class="cls-1" points="295.28 56.44 284.64 16.69 256.32 43.22 295.28 56.44"/><path class="cls-1" d="M22.43,119.5l-9.1-41.93L52.26,88.66ZM14.66,79,23,117.47,50.39,89.16Z"/><polygon class="cls-1" points="82.21 127.88 103.02 92.38 64.23 90.86 82.21 127.88"/></g></g></svg>