<svg xmlns="http://www.w3.org/2000/svg" viewBox="0 0 295.28 128.1"><defs><style>.cls-1{fill:#ffb13d;}</style></defs><title>アセット 1</title><g id="レイヤー_2" data-name="レイヤー 2"><g id="レイヤー_1-2" data-name="レイヤー 1"><path class="cls-1" d="M191.4,92.79A253.05,253.05,0,0,1,142,88.21C90.93,77.89,47.08,55.94,21.68,28,14.86,20.48,6.38,11.15,6.26,0h1c.12,10.76,8.11,19.55,15.16,27.31C47.68,55.11,91.33,77,142.18,87.23c50.14,10.13,117.18,2.86,152.62-16.55l.48.88C270.52,85.12,230.45,92.79,191.4,92.79Z"/><path class="cls-1" d="M156.28,128.1,139.76,88.49l40.29,3.89Zm-15-38.45L156.48,126l21.81-32.78Z"/><polygon class="cls-1" points="97.56 114.08 91.14 73.44 127.81 86.18 97.56 114.08"/><path class="cls-1" d="M46.16,92.17l1-42.91L82.4,69.18Zm2-41.21L47.2,90.32,80.45,69.23Z"/><polygon class="cls-1" points="0 56.44 10.64 16.69 38.97 43.22 0 56.44"/><path class="cls-1" d="M272.85,119.5,243,88.66,282,77.57Zm-28-30.34,27.37,28.31L280.62,79Z"/><polygon class="cls-1" points="213.07 127.88 192.26 92.38 231.05 90.86 213.07 127.88"/></g></g></svg>