<svg xmlns="http://www.w3.org/2000/svg" viewBox="0 0 61.37 59.06"><defs><style>.cls-1{fill:#d6cf92;}</style></defs><title>アセット 12</title><g id="レイヤー_2" data-name="レイヤー 2"><g id="レイヤー_1-2" data-name="レイヤー 1"><path class="cls-1" d="M50.16,38.16a8.45,8.45,0,0,0,2.09-3.64,5.88,5.88,0,0,0-.15-3.83,4.54,4.54,0,0,0-2.41-2.53,18.24,18.24,0,0,0-4-.63,7.1,7.1,0,0,1-1.23-.3,4.23,4.23,0,0,1-.62-.25l-.55-.28a9.12,9.12,0,0,1-2-1.49,6.39,6.39,0,0,1-1.93-4.58,6.22,6.22,0,0,1,.56-2.4,9,9,0,0,1,1.2-2A6.54,6.54,0,0,1,45,13.9a7.33,7.33,0,0,0-3,2.91,7.88,7.88,0,0,0-.73,1.89,5.17,5.17,0,0,0-.19,1.88,4.87,4.87,0,0,0,1.66,3.15,7,7,0,0,0,1.55,1.08c.14.08.28.14.43.21l.39.16a5.68,5.68,0,0,0,.9.2,15.45,15.45,0,0,1,4.54.9,6.13,6.13,0,0,1,3.17,3.87,6.23,6.23,0,0,1,.19,2.46,7.24,7.24,0,0,1-.66,2.28A7.31,7.31,0,0,1,50.16,38.16Z"/><path class="cls-1" d="M47.69,28.5a4.17,4.17,0,0,1,2,.94A3.94,3.94,0,0,1,50.9,31.5,6.62,6.62,0,0,1,50,36.12a8.79,8.79,0,0,0-1.19,3.61A4.23,4.23,0,0,0,50,42.9a5.39,5.39,0,0,0,1.38,1.17,5.64,5.64,0,0,0,1.63.74,1.9,1.9,0,0,0,.37.08,2.77,2.77,0,0,0,.41,0,4.34,4.34,0,0,0,.87-.12,6.54,6.54,0,0,0,1.7-.71,8.33,8.33,0,0,0,1.51-1.22,5.65,5.65,0,0,0,.64-.75,3,3,0,0,0,.44-.8A2.66,2.66,0,0,0,59,39.48a1.15,1.15,0,0,0-.54-.71,1.19,1.19,0,0,0-1,0,1.31,1.31,0,0,1,1.08-.32,1.63,1.63,0,0,1,1,.74A2.7,2.7,0,0,1,60,40.35a3.91,3.91,0,0,1,0,1.23,4.44,4.44,0,0,1-.16.6,4.11,4.11,0,0,1-.25.57,7.32,7.32,0,0,1-.61,1,8.5,8.5,0,0,1-1.63,1.71,7.08,7.08,0,0,1-2.15,1.16,5.76,5.76,0,0,1-1.26.27c-.21,0-.43,0-.66,0a3.94,3.94,0,0,1-.7-.09,7.35,7.35,0,0,1-2.31-.92,7.77,7.77,0,0,1-1.91-1.58A6.69,6.69,0,0,1,47,42.11a5.51,5.51,0,0,1-.26-1.27l0-.64a4.46,4.46,0,0,1,0-.63,9.44,9.44,0,0,1,1.81-4.38,5.82,5.82,0,0,0,1.24-3.55,3.3,3.3,0,0,0-.57-1.8A4.52,4.52,0,0,0,47.69,28.5Z"/><path class="cls-1" d="M49.75,26.8a5.2,5.2,0,0,1,5.59,3.27,6.09,6.09,0,0,1,.21,2.38,8.26,8.26,0,0,1-1.68,4.27,5.42,5.42,0,0,1-1.8,1.46,2.61,2.61,0,0,1-2.23.13,2.72,2.72,0,0,0,2-.6,5.49,5.49,0,0,0,1.39-1.49A8.45,8.45,0,0,0,54,34.36a8.8,8.8,0,0,0,.43-2,5.51,5.51,0,0,0-.11-2,4.77,4.77,0,0,0-1-1.7A5.72,5.72,0,0,0,49.75,26.8Z"/><rect class="cls-1" x="52.65" y="27.69" width="0.54" height="1.69" transform="translate(18.81 78.05) rotate(-83.78)"/><path class="cls-1" d="M54.8,30.63a6,6,0,0,1-1-.18,2.86,2.86,0,0,0-.7-.11L53,29.79a3.27,3.27,0,0,1,.88.13,5.23,5.23,0,0,0,.92.16Z"/><path class="cls-1" d="M54.59,32.75c-.32-.14-.61-.28-.84-.4a4.09,4.09,0,0,0-.49-.22l.18-.52c.14.05.32.14.55.25a7.83,7.83,0,0,0,.81.38Z"/><path class="cls-1" d="M54.36,34.43l-.56-.3-.56-.31.26-.48.56.31.56.31Z"/><rect class="cls-1" x="52.98" y="34.8" width="0.54" height="1.29" transform="translate(-1.16 69.08) rotate(-65.37)"/><rect class="cls-1" x="52.27" y="35.87" width="0.55" height="1.16" transform="translate(-1.81 70.14) rotate(-66.54)"/><rect class="cls-1" x="51.2" y="37.22" width="0.54" height="0.94" transform="translate(-7.04 63.11) rotate(-59.7)"/><path class="cls-1" d="M44.92,21.43a5.67,5.67,0,0,1-.05-3.24,9.37,9.37,0,0,1,1.41-3,32.67,32.67,0,0,1,4.47-4.69,19.81,19.81,0,0,0,2.11-2.29,10,10,0,0,0,1.49-2.64,5.9,5.9,0,0,0,.24-3A3.9,3.9,0,0,0,53,0a3.78,3.78,0,0,1,2.08,2.46,6,6,0,0,1,0,3.35,9.37,9.37,0,0,1-1.47,3,18.49,18.49,0,0,1-2.19,2.47A51.49,51.49,0,0,0,47,15.7a10.14,10.14,0,0,0-1.57,2.65A6.31,6.31,0,0,0,44.92,21.43Z"/><path class="cls-1" d="M47.5,16.36a8.38,8.38,0,0,1,1.29-1.9,13.91,13.91,0,0,1,1.71-1.55c1.21-.95,2.5-1.75,3.62-2.75A12.65,12.65,0,0,0,56.91,6.7a8.62,8.62,0,0,0,.83-2.07,5.13,5.13,0,0,0,.17-1.11,3.5,3.5,0,0,0-.15-1.11A3.75,3.75,0,0,1,58,4.68a8.54,8.54,0,0,1-.72,2.21,11.36,11.36,0,0,1-2.8,3.68,40.66,40.66,0,0,1-3.73,2.68A11.88,11.88,0,0,0,47.5,16.36Z"/><path class="cls-1" d="M59.85,46.66a2.64,2.64,0,0,0-1.59.28c-.5.21-1,.49-1.5.73a7.07,7.07,0,0,1-3.37.63,6.61,6.61,0,0,1-3.25-1.07A5.64,5.64,0,0,1,48,44.65a6.82,6.82,0,0,0,2.38,2.22,7.21,7.21,0,0,0,3.07.89,7.83,7.83,0,0,0,3.17-.48c.51-.19,1-.43,1.57-.59A2.55,2.55,0,0,1,59.85,46.66Z"/><path class="cls-1" d="M47.85,29.5a2.67,2.67,0,0,0-1.5-.1,11.93,11.93,0,0,0-1.47.4,12.36,12.36,0,0,1-3.2.57,12.13,12.13,0,0,1-3.24-.32,9.6,9.6,0,0,1-3-1.26c1.07.17,2.09.33,3.11.42a26.15,26.15,0,0,0,3.06.07A24.59,24.59,0,0,0,44.69,29a7.38,7.38,0,0,1,1.64-.1A2.35,2.35,0,0,1,47.85,29.5Z"/><path class="cls-1" d="M42.49,28.28a10.22,10.22,0,0,1-4.37,0,4.93,4.93,0,0,1-2-1A3.32,3.32,0,0,1,35,25.39a5.09,5.09,0,0,0,3.27,2.38A28.61,28.61,0,0,0,42.49,28.28Z"/><path class="cls-1" d="M41,28.17a2.7,2.7,0,0,1,1.37,1.93,2.56,2.56,0,0,1-.91-.81A2.49,2.49,0,0,1,41,28.17Z"/><path class="cls-1" d="M39.36,28.45a1.37,1.37,0,0,1,.73.51,1.38,1.38,0,0,1,.29.83,1.41,1.41,0,0,1-1-1.34Z"/><path class="cls-1" d="M37.54,27.79a1.25,1.25,0,0,1,.87,1.53,1.92,1.92,0,0,1-.59-.67A2.23,2.23,0,0,1,37.54,27.79Z"/><path class="cls-1" d="M36.37,27.13a1,1,0,0,1,.37.66,1,1,0,0,1-.16.74,1,1,0,0,1-.37-.66A1,1,0,0,1,36.37,27.13Z"/><ellipse class="cls-1" cx="57.84" cy="39.54" rx="1.16" ry="0.8" transform="translate(-7.73 64.24) rotate(-55)"/><ellipse class="cls-1" cx="45.85" cy="20.58" rx="1.31" ry="1" transform="translate(2.69 46.33) rotate(-55)"/><path class="cls-1" d="M61.37,9.76s-.1,0-.24,0h-.56a12.11,12.11,0,0,0-1.67.15,11.31,11.31,0,0,0-2.64.75.13.13,0,0,0-.06,0l-.06,0c-.07,0-.15,0-.13,0a11.15,11.15,0,0,0-2.95,1.85l-.26.24-.31.27-.48.45-.73.63a7.73,7.73,0,0,0-1.71,1.73c-1.47,2.25-1,2.85-1,2.8,0,.13.21.24.3.34a1.27,1.27,0,0,1,.39.78.76.76,0,0,1-.25.52s-.24.22-.26.2c.57.81,1.13.27,1.13.28a2.64,2.64,0,0,1,0,1.18c-.69-.42-.86.33-1.06.77a.62.62,0,0,1-.61.4c.56.72,1.11.21,1.1.22,0,1.1,1.19,1.36,1.77,1.63a1.18,1.18,0,0,1,.53.45.5.5,0,0,1,0,.15h0v0l-.05,0-.17.2.12-.14.16-.17s0-.05,0-.08a.21.21,0,0,0,0-.12.82.82,0,0,0-.35-.68c-.56-.53-1.31-.77-1.1-2.82a3.1,3.1,0,0,0-.47-2.44c.41-.15.2-.48.17-.76h0a1,1,0,0,1,0-.25,2.15,2.15,0,0,1,.17-1.87,8.39,8.39,0,0,1,.76-1.29,13.62,13.62,0,0,1,1.66-1.84c.24-.23.45-.41.6-.53l.14-.11a10.9,10.9,0,0,1,3.07-1.89h0a12.16,12.16,0,0,1,2.49-.75,16.68,16.68,0,0,1,1.74-.24c.25,0,.45,0,.6-.08a.56.56,0,0,0,.18,0S61.38,9.77,61.37,9.76Z"/><path class="cls-1" d="M36.56,34.43A9.67,9.67,0,0,0,41,36.6a7.31,7.31,0,0,0,3.42-.12c2.1-.57,2.33-2.59,1.87-2s-.29.11-.22-.09c.43-1.65-.55-2-1-2a.61.61,0,0,0-.44,1,.55.55,0,0,0-.67.64c.06.33.33.33.19.77-.34,1.57-2.31,1.48-2.8,1.44s-.66-.22-.11-.21c1.87.18,2.7-.8,2.52-1.2s-.73-.35-1.08-.16-.44.16-.3,0,.41-.36.18-.59-.87.23-1.7.63c-1.64.6-3.49.17-3.92-.64a3.77,3.77,0,0,0,2.81.6c.84-.13,1.37-.52,1.29-.91s-.47-.58-1-.4c0-.36,0-.87-1.2-.47a3.31,3.31,0,0,1-3.17-.27l-.75.07A11.66,11.66,0,0,0,36.56,34.43Z"/><path class="cls-1" d="M40.47,47.86a7.34,7.34,0,0,1-3.27,3.08,7.7,7.7,0,0,1-2.28.67,6.41,6.41,0,0,1-2.46-.2,6.07,6.07,0,0,1-3.87-3.17c-.78-1.65-.67-3.27-.9-4.54a5.53,5.53,0,0,0-.21-.89,2.74,2.74,0,0,0-.15-.4L27.12,42A7.29,7.29,0,0,0,26,40.43a4.94,4.94,0,0,0-3.15-1.66A5.26,5.26,0,0,0,21,39a7.56,7.56,0,0,0-1.88.73,7.19,7.19,0,0,0-2.91,3,6.57,6.57,0,0,1,2.3-3.86,9,9,0,0,1,2-1.19,6.21,6.21,0,0,1,2.39-.56A6.39,6.39,0,0,1,27.51,39,8.88,8.88,0,0,1,29,41c.1.18.19.37.28.55s.18.42.25.62a8.78,8.78,0,0,1,.3,1.23,18.11,18.11,0,0,0,.62,4A4.56,4.56,0,0,0,33,49.79a5.85,5.85,0,0,0,3.82.15A8.46,8.46,0,0,0,40.47,47.86Z"/><path class="cls-1" d="M30.81,45.38A4.43,4.43,0,0,0,32.15,47a3.19,3.19,0,0,0,1.8.58,5.86,5.86,0,0,0,3.55-1.25,9.4,9.4,0,0,1,4.37-1.81,4.46,4.46,0,0,1,.63,0l.65,0a6.21,6.21,0,0,1,1.27.25A6.5,6.5,0,0,1,46.63,46a7.77,7.77,0,0,1,1.59,1.9,7.51,7.51,0,0,1,.92,2.32,7,7,0,0,1,.09.7c0,.23,0,.44,0,.66a5.78,5.78,0,0,1-.26,1.25A7.51,7.51,0,0,1,47.77,55a8.52,8.52,0,0,1-1.71,1.63,9.86,9.86,0,0,1-1,.61,4.17,4.17,0,0,1-.58.24,3,3,0,0,1-.59.16,3.91,3.91,0,0,1-1.23,0,2.7,2.7,0,0,1-1.15-.41,1.57,1.57,0,0,1-.74-1,1.24,1.24,0,0,1,.32-1.08,1.13,1.13,0,0,0,0,1,1.12,1.12,0,0,0,.7.54,2.68,2.68,0,0,0,1.83-.1,3.27,3.27,0,0,0,.8-.44,8.93,8.93,0,0,0,.74-.64A8.3,8.3,0,0,0,46.37,54a6,6,0,0,0,.72-1.7,4.31,4.31,0,0,0,.11-.86,2.91,2.91,0,0,0,0-.42,2.83,2.83,0,0,0-.07-.36A5.58,5.58,0,0,0,46.38,49a6,6,0,0,0-1.17-1.38A4.3,4.3,0,0,0,42,46.54a8.73,8.73,0,0,0-3.6,1.18,6.65,6.65,0,0,1-4.63.87,3.93,3.93,0,0,1-2.06-1.18A4.06,4.06,0,0,1,30.81,45.38Z"/><path class="cls-1" d="M29.11,47.44A5.63,5.63,0,0,0,31,51.08a4.61,4.61,0,0,0,1.69,1,5.53,5.53,0,0,0,2,.1,8.67,8.67,0,0,0,2-.42,8.28,8.28,0,0,0,1.86-.86A5.36,5.36,0,0,0,40,49.49a2.71,2.71,0,0,0,.6-2,2.63,2.63,0,0,1-.14,2.22A5.13,5.13,0,0,1,39,51.57a8.18,8.18,0,0,1-4.26,1.67,6.07,6.07,0,0,1-2.38-.2,5.14,5.14,0,0,1-2-1.35A5,5,0,0,1,29.11,47.44Z"/><rect class="cls-1" x="30.57" y="49.77" width="0.54" height="1.69" transform="translate(-5.31 3.64) rotate(-6.22)"/><path class="cls-1" d="M32.39,52.52a5.28,5.28,0,0,0-.16-.91,3.27,3.27,0,0,1-.13-.88l.54.05a3,3,0,0,0,.12.71,5.76,5.76,0,0,1,.17,1Z"/><path class="cls-1" d="M34.55,52.5c-.13-.31-.27-.59-.38-.82s-.2-.41-.25-.55l.51-.18c0,.11.13.29.23.49s.26.52.39.85Z"/><path class="cls-1" d="M36.26,52.32,36,51.75c-.1-.19-.2-.38-.3-.55l.48-.27.3.57.31.55Z"/><rect class="cls-1" x="37.48" y="50.3" width="0.54" height="1.29" transform="translate(-17.78 20.34) rotate(-24.6)"/><rect class="cls-1" x="38.48" y="49.66" width="0.55" height="1.16" transform="translate(-16.8 19.58) rotate(-23.46)"/><rect class="cls-1" x="39.73" y="48.7" width="0.54" height="0.94" transform="translate(-19.34 26.9) rotate(-30.3)"/><path class="cls-1" d="M23.74,42.62a6.3,6.3,0,0,0-3.08.45A10,10,0,0,0,18,44.65,48.87,48.87,0,0,0,13.6,49.2a19.07,19.07,0,0,1-2.47,2.18,9.27,9.27,0,0,1-3,1.47,6,6,0,0,1-3.36,0,3.83,3.83,0,0,1-2.45-2.09A3.93,3.93,0,0,0,4.9,52.29a5.76,5.76,0,0,0,3-.25,9.39,9.39,0,0,0,2.65-1.49,18.9,18.9,0,0,0,2.29-2.11A33.25,33.25,0,0,1,17.5,44a9.46,9.46,0,0,1,3-1.4A5.58,5.58,0,0,1,23.74,42.62Z"/><path class="cls-1" d="M18.66,45.19a12.17,12.17,0,0,0-3.11,3.25,38,38,0,0,1-2.67,3.73A11.39,11.39,0,0,1,9.19,55a9,9,0,0,1-2.2.71,3.67,3.67,0,0,1-2.27-.24,3.25,3.25,0,0,0,1.11.16,5.87,5.87,0,0,0,1.1-.18A8.69,8.69,0,0,0,9,54.6a12.76,12.76,0,0,0,3.46-2.79c1-1.12,1.8-2.41,2.75-3.61a14,14,0,0,1,1.55-1.72A8.91,8.91,0,0,1,18.66,45.19Z"/><path class="cls-1" d="M49,57.54a2.55,2.55,0,0,1,0-1.68c.17-.54.4-1.06.6-1.57a8,8,0,0,0,.48-3.17,7.23,7.23,0,0,0-.9-3.07A6.88,6.88,0,0,0,47,45.68a5.7,5.7,0,0,1,2.59,2.15,6.85,6.85,0,0,1,1.07,3.26A7.3,7.3,0,0,1,50,54.45c-.24.52-.52,1-.74,1.5A2.66,2.66,0,0,0,49,57.54Z"/><path class="cls-1" d="M31.81,45.55A2.29,2.29,0,0,1,31.18,44a7.47,7.47,0,0,1,.1-1.65,26.45,26.45,0,0,0,.3-3.05,22.34,22.34,0,0,0-.07-3.06c-.08-1-.24-2.05-.41-3.12a9.44,9.44,0,0,1,1.25,3,11.78,11.78,0,0,1,.32,3.24,12.27,12.27,0,0,1-.56,3.2,11.61,11.61,0,0,0-.4,1.48A2.58,2.58,0,0,0,31.81,45.55Z"/><path class="cls-1" d="M30.58,40.18A28.64,28.64,0,0,0,30.07,36a5.08,5.08,0,0,0-2.38-3.28,3.46,3.46,0,0,1,1.88,1.14,5,5,0,0,1,1,2A10,10,0,0,1,30.58,40.18Z"/><path class="cls-1" d="M30.47,38.68a2.48,2.48,0,0,1,1.13.46,2.4,2.4,0,0,1,.81.91,2.61,2.61,0,0,1-1.13-.47A2.53,2.53,0,0,1,30.47,38.68Z"/><path class="cls-1" d="M30.76,37.06a1.32,1.32,0,0,1,.83.29,1.36,1.36,0,0,1,.51.72,1.39,1.39,0,0,1-.84-.29A1.33,1.33,0,0,1,30.76,37.06Z"/><path class="cls-1" d="M30.1,35.23a2.28,2.28,0,0,1,1.53.87,1.22,1.22,0,0,1-1.53-.87Z"/><path class="cls-1" d="M29.43,34.06a1.05,1.05,0,0,1,.74-.16,1,1,0,0,1,.67.38,1.07,1.07,0,0,1-1.41-.22Z"/><ellipse class="cls-1" cx="41.85" cy="55.53" rx="1.16" ry="0.8" transform="translate(-24.28 34.04) rotate(-35)"/><ellipse class="cls-1" cx="22.89" cy="43.54" rx="1.31" ry="1" transform="translate(-20.84 21) rotate(-35)"/><path class="cls-1" d="M12.07,59.06s0-.09,0-.24,0-.33,0-.56a13.73,13.73,0,0,1,.14-1.66A11.3,11.3,0,0,1,13,54a.13.13,0,0,1,0-.06l0-.06c0-.07,0-.14.06-.12a11.15,11.15,0,0,1,1.85-3l.23-.27.28-.3.45-.49c.26-.28.44-.5.62-.72a7.83,7.83,0,0,1,1.74-1.72c2.25-1.47,2.84-1,2.8-1,.13,0,.23.21.33.29a1.34,1.34,0,0,0,.78.4.77.77,0,0,0,.53-.26,2.19,2.19,0,0,0,.2-.25c.81.56.26,1.12.28,1.12a2.64,2.64,0,0,0,1.17,0c-.41-.69.34-.86.78-1.07a.65.65,0,0,0,.4-.6.73.73,0,0,1,.21,1.1c1.1,0,1.37,1.18,1.63,1.77a1,1,0,0,0,.46.52.26.26,0,0,0,.14.05h0l.05,0,.19-.17-.13.11-.17.16a.14.14,0,0,1-.08,0l-.12,0A.85.85,0,0,1,27,49c-.53-.55-.78-1.3-2.82-1.1a3.16,3.16,0,0,1-2.45-.46c-.14.41-.47.2-.75.16h-.26a2.17,2.17,0,0,0-1.88.18,9.22,9.22,0,0,0-1.29.75,15,15,0,0,0-1.84,1.66c-.23.24-.41.46-.53.61l-.11.14A10.87,10.87,0,0,0,13.23,54h0a12.11,12.11,0,0,0-.76,2.49c-.12.61-.19,1.25-.24,1.74,0,.24-.05.45-.07.6l-.05.17S12.08,59.07,12.07,59.06Z"/><path class="cls-1" d="M35,32.57l-.06.76a3.31,3.31,0,0,1,.26,3.17c-.4,1.19.12,1.21.48,1.2-.19.57,0,.95.4,1s.78-.44.91-1.28a3.76,3.76,0,0,0-.61-2.82c.81.44,1.24,2.28.65,3.92-.4.84-.94,1.37-.63,1.71s.44,0,.58-.18.17-.06,0,.29-.35.85.16,1.08,1.38-.65,1.21-2.52c0-.54.15-.38.2.11s.13,2.47-1.44,2.81c-.43.13-.44-.14-.76-.19a.55.55,0,0,0-.65.66.61.61,0,0,0-.94.44c-.07.41.3,1.4,1.95,1,.21-.07.73-.22.09.23s1.4.23,2-1.88a7.58,7.58,0,0,0,.12-3.42,9.7,9.7,0,0,0-2.18-4.4A11.18,11.18,0,0,0,35,32.57Z"/><rect class="cls-1" x="47.19" y="1.63" width="2.72" height="5.12"/><rect class="cls-1" x="44.6" y="1.63" width="0.54" height="1.44"/><rect class="cls-1" y="41.27" width="1.44" height="0.54"/><rect class="cls-1" y="43.86" width="5.12" height="2.72"/></g></g></svg>