<svg xmlns="http://www.w3.org/2000/svg" viewBox="0 0 62.91 59.06"><defs><style>.cls-1{fill:#d6cf92;}</style></defs><title>アセット 13</title><g id="レイヤー_2" data-name="レイヤー 2"><g id="レイヤー_1-2" data-name="レイヤー 1"><path class="cls-1" d="M11.21,38.16a8.45,8.45,0,0,1-2.09-3.64,5.88,5.88,0,0,1,.15-3.83,4.54,4.54,0,0,1,2.41-2.53,18.24,18.24,0,0,1,4-.63,7.33,7.33,0,0,0,1.23-.3,4.23,4.23,0,0,0,.62-.25l.55-.28a9.12,9.12,0,0,0,2-1.49A6.43,6.43,0,0,0,22,20.63a6.41,6.41,0,0,0-.56-2.4,9,9,0,0,0-1.2-2,6.54,6.54,0,0,0-3.86-2.31,7.33,7.33,0,0,1,3,2.91,8.32,8.32,0,0,1,.73,1.89,5.17,5.17,0,0,1,.19,1.88,4.87,4.87,0,0,1-1.66,3.15,7,7,0,0,1-1.55,1.08c-.14.08-.28.14-.43.21l-.39.16a5.68,5.68,0,0,1-.9.2,15.45,15.45,0,0,0-4.54.9,6.13,6.13,0,0,0-3.17,3.87,6.23,6.23,0,0,0-.19,2.46,7.24,7.24,0,0,0,.66,2.28A7.31,7.31,0,0,0,11.21,38.16Z"/><path class="cls-1" d="M13.68,28.5a4.17,4.17,0,0,0-2,.94,3.94,3.94,0,0,0-1.19,2.06,6.62,6.62,0,0,0,.87,4.62,8.79,8.79,0,0,1,1.19,3.61,4.27,4.27,0,0,1-1.12,3.17A5.39,5.39,0,0,1,10,44.07a5.58,5.58,0,0,1-1.64.74,1.82,1.82,0,0,1-.36.08,2.77,2.77,0,0,1-.41,0,4.34,4.34,0,0,1-.87-.12,6.4,6.4,0,0,1-1.7-.71,8.33,8.33,0,0,1-1.51-1.22,5.65,5.65,0,0,1-.64-.75,3,3,0,0,1-.44-.8,2.66,2.66,0,0,1-.11-1.82,1.15,1.15,0,0,1,.54-.71,1.17,1.17,0,0,1,1,0,1.31,1.31,0,0,0-1.08-.32,1.64,1.64,0,0,0-1,.74,2.7,2.7,0,0,0-.41,1.15,3.91,3.91,0,0,0,0,1.23,4.44,4.44,0,0,0,.16.6,4.11,4.11,0,0,0,.25.57,7.32,7.32,0,0,0,.61,1,8.5,8.5,0,0,0,1.63,1.71,7.08,7.08,0,0,0,2.15,1.16,5.8,5.8,0,0,0,1.25.27c.22,0,.44,0,.66,0a3.93,3.93,0,0,0,.71-.09,7.35,7.35,0,0,0,2.31-.92,7.77,7.77,0,0,0,1.91-1.58,6.69,6.69,0,0,0,1.27-2.22,6.09,6.09,0,0,0,.26-1.27l0-.64a4.46,4.46,0,0,0-.05-.63,9.44,9.44,0,0,0-1.81-4.38,5.76,5.76,0,0,1-1.24-3.55,3.3,3.3,0,0,1,.57-1.8A4.43,4.43,0,0,1,13.68,28.5Z"/><path class="cls-1" d="M11.62,26.8a5,5,0,0,0-4.24,1.3,5,5,0,0,0-1.35,2,6.09,6.09,0,0,0-.21,2.38A8.26,8.26,0,0,0,7.5,36.72a5.42,5.42,0,0,0,1.8,1.46,2.61,2.61,0,0,0,2.23.13,2.72,2.72,0,0,1-2-.6,5.49,5.49,0,0,1-1.39-1.49,8.45,8.45,0,0,1-.85-1.86,8.8,8.8,0,0,1-.43-2,5.51,5.51,0,0,1,.11-2,4.77,4.77,0,0,1,1-1.7A5.72,5.72,0,0,1,11.62,26.8Z"/><rect class="cls-1" x="7.6" y="28.27" width="1.69" height="0.54" transform="translate(-3.04 1.08) rotate(-6.22)"/><path class="cls-1" d="M6.56,30.63l0-.55a5.12,5.12,0,0,0,.91-.16,3.39,3.39,0,0,1,.89-.13l-.06.55a2.86,2.86,0,0,0-.7.11A6.06,6.06,0,0,1,6.56,30.63Z"/><path class="cls-1" d="M6.78,32.75l-.21-.51a7.83,7.83,0,0,0,.81-.38c.23-.11.41-.2.55-.25l.18.52a4.09,4.09,0,0,0-.49.22C7.39,32.47,7.1,32.61,6.78,32.75Z"/><path class="cls-1" d="M7,34.43,6.75,34l.56-.31.56-.31.26.48-.56.31Z"/><rect class="cls-1" x="7.48" y="35.17" width="1.29" height="0.54" transform="translate(-14.05 6.62) rotate(-24.66)"/><rect class="cls-1" x="8.24" y="36.18" width="1.16" height="0.55" transform="translate(-13.78 6.53) rotate(-23.46)"/><rect class="cls-1" x="9.43" y="37.42" width="0.94" height="0.54" transform="translate(-17.68 10.15) rotate(-30.32)"/><path class="cls-1" d="M16.45,21.43a5.67,5.67,0,0,0,.05-3.24,9.37,9.37,0,0,0-1.41-3,32.67,32.67,0,0,0-4.47-4.69A19,19,0,0,1,8.51,8.21,10,10,0,0,1,7,5.57a5.9,5.9,0,0,1-.25-3A4,4,0,0,1,8.34,0,3.78,3.78,0,0,0,6.26,2.46a6,6,0,0,0,0,3.35,9.37,9.37,0,0,0,1.47,3,18.49,18.49,0,0,0,2.19,2.47,50,50,0,0,1,4.54,4.41A10.17,10.17,0,0,1,16,18.35,6.31,6.31,0,0,1,16.45,21.43Z"/><path class="cls-1" d="M13.87,16.36a8.38,8.38,0,0,0-1.29-1.9,13.91,13.91,0,0,0-1.71-1.55c-1.21-.95-2.5-1.75-3.62-2.75A12.65,12.65,0,0,1,4.46,6.7a8.62,8.62,0,0,1-.83-2.07,5.13,5.13,0,0,1-.17-1.11,3.5,3.5,0,0,1,.15-1.11,3.75,3.75,0,0,0-.24,2.27,8.54,8.54,0,0,0,.72,2.21,11.36,11.36,0,0,0,2.8,3.68,40.66,40.66,0,0,0,3.73,2.68A11.88,11.88,0,0,1,13.87,16.36Z"/><path class="cls-1" d="M1.52,46.66a2.64,2.64,0,0,1,1.59.28c.5.21,1,.49,1.5.73A7.07,7.07,0,0,0,8,48.3a6.61,6.61,0,0,0,3.25-1.07,5.64,5.64,0,0,0,2.16-2.58A6.82,6.82,0,0,1,11,46.87a7.21,7.21,0,0,1-3.07.89,7.83,7.83,0,0,1-3.17-.48c-.51-.19-1-.43-1.57-.59A2.55,2.55,0,0,0,1.52,46.66Z"/><path class="cls-1" d="M13.52,29.5a2.66,2.66,0,0,1,1.5-.1,11.93,11.93,0,0,1,1.47.4,12.36,12.36,0,0,0,3.2.57,12.13,12.13,0,0,0,3.24-.32,9.6,9.6,0,0,0,3-1.26c-1.07.17-2.09.33-3.12.42a26.05,26.05,0,0,1-3.06.07A24.44,24.44,0,0,1,16.68,29a7.38,7.38,0,0,0-1.64-.1A2.35,2.35,0,0,0,13.52,29.5Z"/><path class="cls-1" d="M18.88,28.28a10.22,10.22,0,0,0,4.37,0,4.93,4.93,0,0,0,2-1,3.37,3.37,0,0,0,1.14-1.87,5.09,5.09,0,0,1-3.27,2.38A28.61,28.61,0,0,1,18.88,28.28Z"/><path class="cls-1" d="M20.39,28.17A2.7,2.7,0,0,0,19,30.1a2.56,2.56,0,0,0,.91-.81A2.61,2.61,0,0,0,20.39,28.17Z"/><path class="cls-1" d="M22,28.45a1.37,1.37,0,0,0-.73.51,1.38,1.38,0,0,0-.29.83,1.41,1.41,0,0,0,1-1.34Z"/><path class="cls-1" d="M23.83,27.79a1.16,1.16,0,0,0-.75.59,1.13,1.13,0,0,0-.12.94,1.92,1.92,0,0,0,.59-.67A2.23,2.23,0,0,0,23.83,27.79Z"/><path class="cls-1" d="M25,27.13a1,1,0,0,0-.38.66,1.06,1.06,0,0,0,.17.74,1,1,0,0,0,.37-.66A1,1,0,0,0,25,27.13Z"/><ellipse class="cls-1" cx="3.53" cy="39.54" rx="0.8" ry="1.16" transform="translate(-22.04 9.18) rotate(-35)"/><ellipse class="cls-1" cx="15.52" cy="20.58" rx="1" ry="1.31" transform="matrix(0.82, -0.57, 0.57, 0.82, -9, 12.62)"/><path class="cls-1" d="M0,9.76s.1,0,.24,0H.8a12.11,12.11,0,0,1,1.67.15,11.31,11.31,0,0,1,2.64.75l.06,0,.06,0c.07,0,.14,0,.13,0a11.48,11.48,0,0,1,3,1.85l.26.24.31.27.48.45c.29.26.5.45.73.63a8,8,0,0,1,1.71,1.73c1.47,2.25,1,2.85,1,2.8,0,.13-.21.24-.3.34a1.27,1.27,0,0,0-.39.78.76.76,0,0,0,.25.52s.24.22.25.2c-.56.81-1.12.27-1.12.28a2.64,2.64,0,0,0,0,1.18c.69-.42.86.33,1.06.77a.62.62,0,0,0,.61.4.73.73,0,0,1-1.11.22c0,1.1-1.18,1.36-1.76,1.63a1.18,1.18,0,0,0-.53.45.32.32,0,0,0-.05.15h0v0l0,0,.16.2s0-.05-.11-.14l-.16-.17s0-.05-.05-.08a.37.37,0,0,1,0-.12.82.82,0,0,1,.35-.68c.56-.53,1.31-.77,1.1-2.82a3.1,3.1,0,0,1,.47-2.44c-.41-.15-.21-.48-.17-.76h0a1,1,0,0,0,0-.25,2.15,2.15,0,0,0-.17-1.87,8.39,8.39,0,0,0-.76-1.29,14.32,14.32,0,0,0-1.66-1.84c-.24-.23-.45-.41-.6-.53l-.14-.11A10.9,10.9,0,0,0,5,10.92H5a12.16,12.16,0,0,0-2.49-.75A16.68,16.68,0,0,0,.81,9.93c-.25,0-.46,0-.61-.08A.49.49,0,0,1,0,9.8S0,9.77,0,9.76Z"/><path class="cls-1" d="M26.49,32.74l-.75-.07a3.32,3.32,0,0,1-3.18.27c-1.18-.4-1.21.11-1.2.47-.56-.18-.95,0-1,.4s.45.78,1.29.91a3.77,3.77,0,0,0,2.81-.6c-.44.81-2.28,1.24-3.92.64-.83-.4-1.37-.93-1.7-.63s0,.45.17.59.06.17-.29,0-.84-.36-1.08.16.65,1.38,2.52,1.2c.55,0,.38.15-.11.21s-2.47.13-2.8-1.44c-.14-.44.13-.44.19-.77a.55.55,0,0,0-.67-.64.61.61,0,0,0-.44-1c-.41-.06-1.39.31-1,2,.07.2.23.72-.22.09s-.23,1.39,1.87,2a7.31,7.31,0,0,0,3.42.12,9.67,9.67,0,0,0,4.4-2.17A11.66,11.66,0,0,0,26.49,32.74Z"/><path class="cls-1" d="M20.9,47.86a7.34,7.34,0,0,0,3.27,3.08,7.7,7.7,0,0,0,2.28.67,6.41,6.41,0,0,0,2.46-.2,6.07,6.07,0,0,0,3.87-3.17c.78-1.65.67-3.27.9-4.54a5.53,5.53,0,0,1,.21-.89,2.74,2.74,0,0,1,.15-.4l.21-.43a7.29,7.29,0,0,1,1.08-1.55,4.94,4.94,0,0,1,3.15-1.66,5.19,5.19,0,0,1,1.88.2,7.48,7.48,0,0,1,1.89.73,7.19,7.19,0,0,1,2.91,3,6.54,6.54,0,0,0-2.31-3.86,8.73,8.73,0,0,0-2-1.19,6.21,6.21,0,0,0-2.39-.56A6.39,6.39,0,0,0,33.86,39a8.88,8.88,0,0,0-1.5,2c-.1.18-.19.37-.28.55s-.18.42-.25.62a8.78,8.78,0,0,0-.3,1.23,18.11,18.11,0,0,1-.62,4,4.56,4.56,0,0,1-2.54,2.41,5.85,5.85,0,0,1-3.82.15A8.46,8.46,0,0,1,20.9,47.86Z"/><path class="cls-1" d="M30.56,45.38A4.43,4.43,0,0,1,29.22,47a3.21,3.21,0,0,1-1.8.58,5.86,5.86,0,0,1-3.55-1.25,9.4,9.4,0,0,0-4.37-1.81,4.48,4.48,0,0,0-.64,0l-.64,0a6.21,6.21,0,0,0-1.27.25A6.5,6.5,0,0,0,14.74,46a7.77,7.77,0,0,0-1.59,1.9,7.51,7.51,0,0,0-.92,2.32,7,7,0,0,0-.09.7,4.79,4.79,0,0,0,0,.66,5.78,5.78,0,0,0,.26,1.25A7.28,7.28,0,0,0,13.6,55a8.52,8.52,0,0,0,1.71,1.63,9.86,9.86,0,0,0,1,.61,4.17,4.17,0,0,0,.58.24,3,3,0,0,0,.59.16,3.91,3.91,0,0,0,1.23,0,2.7,2.7,0,0,0,1.15-.41,1.57,1.57,0,0,0,.74-1,1.24,1.24,0,0,0-.32-1.08,1.17,1.17,0,0,1,0,1,1.12,1.12,0,0,1-.7.54,2.68,2.68,0,0,1-1.83-.1,3.27,3.27,0,0,1-.8-.44c-.25-.19-.51-.42-.75-.64A8.69,8.69,0,0,1,15,54a6,6,0,0,1-.72-1.7,4.31,4.31,0,0,1-.11-.86,2.91,2.91,0,0,1,0-.42,2.83,2.83,0,0,1,.07-.36A5.58,5.58,0,0,1,15,49a6,6,0,0,1,1.17-1.38,4.28,4.28,0,0,1,3.18-1.11,8.73,8.73,0,0,1,3.6,1.18,6.65,6.65,0,0,0,4.63.87,3.86,3.86,0,0,0,2.05-1.18A4,4,0,0,0,30.56,45.38Z"/><path class="cls-1" d="M32.26,47.44a5.63,5.63,0,0,1-1.89,3.64,4.61,4.61,0,0,1-1.69,1,5.54,5.54,0,0,1-2,.1,8.67,8.67,0,0,1-2-.42,8.28,8.28,0,0,1-1.86-.86,5.36,5.36,0,0,1-1.5-1.39,2.71,2.71,0,0,1-.6-2,2.63,2.63,0,0,0,.14,2.22,5.13,5.13,0,0,0,1.46,1.81,8.18,8.18,0,0,0,4.26,1.67A6.08,6.08,0,0,0,29,53a5.14,5.14,0,0,0,2-1.35A5,5,0,0,0,32.26,47.44Z"/><rect class="cls-1" x="29.68" y="50.34" width="1.69" height="0.54" transform="translate(-23.13 75.42) rotate(-83.72)"/><path class="cls-1" d="M29,52.52l-.54,0a5.76,5.76,0,0,1,.17-1,3.7,3.7,0,0,0,.12-.71l.54-.05a3.27,3.27,0,0,1-.13.88A5.28,5.28,0,0,0,29,52.52Z"/><path class="cls-1" d="M26.82,52.5l-.5-.21c.13-.33.27-.61.39-.85s.19-.38.23-.49l.51.18c-.05.14-.14.32-.25.55S27,52.19,26.82,52.5Z"/><path class="cls-1" d="M25.11,52.32l-.48-.26.3-.56c.11-.19.21-.39.31-.57l.48.27c-.1.17-.2.37-.31.56Z"/><rect class="cls-1" x="22.97" y="50.67" width="1.29" height="0.54" transform="translate(-32.53 51.22) rotate(-65.41)"/><rect class="cls-1" x="22.04" y="49.97" width="1.16" height="0.54" transform="translate(-32.48 50.96) rotate(-66.51)"/><rect class="cls-1" x="20.9" y="48.89" width="0.94" height="0.54" transform="translate(-31.87 42.86) rotate(-59.76)"/><path class="cls-1" d="M37.63,42.62a6.3,6.3,0,0,1,3.08.45,10,10,0,0,1,2.65,1.58,48.87,48.87,0,0,1,4.41,4.55,19.07,19.07,0,0,0,2.47,2.18,9.27,9.27,0,0,0,3,1.47,6,6,0,0,0,3.36,0,3.83,3.83,0,0,0,2.45-2.09,3.93,3.93,0,0,1-2.59,1.57,5.76,5.76,0,0,1-3-.25,9.39,9.39,0,0,1-2.65-1.49,18.9,18.9,0,0,1-2.29-2.11A33.25,33.25,0,0,0,43.87,44a9.46,9.46,0,0,0-3-1.4A5.58,5.58,0,0,0,37.63,42.62Z"/><path class="cls-1" d="M42.7,45.19a12.06,12.06,0,0,1,3.12,3.25,38,38,0,0,0,2.67,3.73A11.46,11.46,0,0,0,52.17,55a9.19,9.19,0,0,0,2.21.71,3.67,3.67,0,0,0,2.27-.24,3.25,3.25,0,0,1-1.11.16,5.87,5.87,0,0,1-1.1-.18,8.69,8.69,0,0,1-2.08-.83,12.61,12.61,0,0,1-3.46-2.79c-1-1.12-1.8-2.41-2.75-3.61a14,14,0,0,0-1.55-1.72A8.72,8.72,0,0,0,42.7,45.19Z"/><path class="cls-1" d="M12.4,57.54a2.55,2.55,0,0,0,0-1.68c-.17-.54-.4-1.06-.6-1.57a7.83,7.83,0,0,1-.48-3.17,7.09,7.09,0,0,1,.9-3.07,6.88,6.88,0,0,1,2.22-2.37,5.7,5.7,0,0,0-2.59,2.15,6.75,6.75,0,0,0-1.07,3.26,7.17,7.17,0,0,0,.63,3.36c.24.52.52,1,.74,1.5A2.66,2.66,0,0,1,12.4,57.54Z"/><path class="cls-1" d="M29.56,45.55A2.29,2.29,0,0,0,30.19,44a7.47,7.47,0,0,0-.1-1.65,26.45,26.45,0,0,1-.3-3.05,22.34,22.34,0,0,1,.07-3.06c.08-1,.24-2.05.41-3.12a9.44,9.44,0,0,0-1.25,3,11.78,11.78,0,0,0-.32,3.24,12.27,12.27,0,0,0,.56,3.2,11.61,11.61,0,0,1,.4,1.48A2.67,2.67,0,0,1,29.56,45.55Z"/><path class="cls-1" d="M30.79,40.18A27.35,27.35,0,0,1,31.3,36a5.08,5.08,0,0,1,2.38-3.28,3.46,3.46,0,0,0-1.88,1.14,5,5,0,0,0-1,2A10,10,0,0,0,30.79,40.18Z"/><path class="cls-1" d="M30.9,38.68a2.48,2.48,0,0,0-1.13.46,2.4,2.4,0,0,0-.81.91,2.61,2.61,0,0,0,1.13-.47A2.53,2.53,0,0,0,30.9,38.68Z"/><path class="cls-1" d="M30.61,37.06a1.32,1.32,0,0,0-.83.29,1.3,1.3,0,0,0-.51.72,1.39,1.39,0,0,0,.84-.29A1.33,1.33,0,0,0,30.61,37.06Z"/><path class="cls-1" d="M31.27,35.23a2.28,2.28,0,0,0-1.53.87,1.16,1.16,0,0,0,.94-.11A1.18,1.18,0,0,0,31.27,35.23Z"/><path class="cls-1" d="M31.94,34.06a1.07,1.07,0,0,0-.75-.16,1,1,0,0,0-.66.38,1.07,1.07,0,0,0,1.41-.22Z"/><ellipse class="cls-1" cx="19.52" cy="55.53" rx="0.8" ry="1.16" transform="matrix(0.57, -0.82, 0.82, 0.57, -37.16, 39.67)"/><ellipse class="cls-1" cx="38.48" cy="43.54" rx="1" ry="1.31" transform="translate(-19.26 50.09) rotate(-55)"/><path class="cls-1" d="M49.3,59.06s0-.09,0-.24,0-.33,0-.56a13.73,13.73,0,0,0-.14-1.66A11.3,11.3,0,0,0,48.4,54a.13.13,0,0,0,0-.06.32.32,0,0,1,0-.06c0-.07,0-.14-.06-.12a11.15,11.15,0,0,0-1.85-3l-.23-.27-.28-.3-.45-.49c-.26-.28-.45-.5-.62-.72a7.83,7.83,0,0,0-1.74-1.72c-2.25-1.47-2.84-1-2.8-1-.13,0-.23.21-.33.29a1.34,1.34,0,0,1-.78.4.77.77,0,0,1-.53-.26,2.19,2.19,0,0,1-.2-.25c-.81.56-.26,1.12-.28,1.12a2.63,2.63,0,0,1-1.17,0c.41-.69-.34-.86-.78-1.07a.63.63,0,0,1-.4-.6.73.73,0,0,0-.21,1.1c-1.1,0-1.37,1.18-1.63,1.77a1,1,0,0,1-.46.52.26.26,0,0,1-.14.05h0l0,0L33.15,49l.13.11.17.16a.14.14,0,0,0,.08,0l.12,0a.85.85,0,0,0,.68-.36c.53-.55.78-1.3,2.82-1.1a3.16,3.16,0,0,0,2.45-.46c.14.41.47.2.75.16h.26a2.15,2.15,0,0,1,1.87.18,8.79,8.79,0,0,1,1.3.75,15.82,15.82,0,0,1,1.84,1.66c.23.24.4.46.53.61l.11.14A10.87,10.87,0,0,1,48.14,54h0a12.11,12.11,0,0,1,.76,2.49c.12.61.19,1.25.24,1.74,0,.24,0,.45.07.6l0,.17S49.29,59.07,49.3,59.06Z"/><path class="cls-1" d="M24.64,34.25a9.7,9.7,0,0,0-2.18,4.4,7.44,7.44,0,0,0,.12,3.42c.57,2.11,2.6,2.34,2,1.88s-.12-.3.09-.23c1.65.44,2-.55,1.95-1a.61.61,0,0,0-.94-.44.55.55,0,0,0-.65-.66c-.32.05-.33.32-.76.19-1.58-.34-1.49-2.32-1.44-2.81s.21-.65.2-.11c-.18,1.87.8,2.71,1.21,2.52s.34-.73.16-1.08-.16-.44,0-.29.36.4.59.18-.23-.87-.63-1.71c-.6-1.64-.16-3.48.65-3.92a3.76,3.76,0,0,0-.61,2.82c.13.84.52,1.36.91,1.28s.58-.46.4-1c.36,0,.88,0,.48-1.2a3.28,3.28,0,0,1,.26-3.17l-.06-.76A11.18,11.18,0,0,0,24.64,34.25Z"/><rect class="cls-1" x="10.16" y="1.63" width="2.72" height="5.12"/><rect class="cls-1" x="14.93" y="1.63" width="0.54" height="1.44"/><rect class="cls-1" x="57.79" y="43.86" width="5.12" height="2.72"/><rect class="cls-1" x="61.47" y="41.27" width="1.44" height="0.54"/></g></g></svg>