<svg xmlns="http://www.w3.org/2000/svg" viewBox="0 0 62.91 59.06"><defs><style>.cls-1{fill:#d6cf92;}</style></defs><title>アセット 16</title><g id="レイヤー_2" data-name="レイヤー 2"><g id="レイヤー_1-2" data-name="レイヤー 1"><path class="cls-1" d="M11.21,20.9a8.49,8.49,0,0,0-2.09,3.65,5.85,5.85,0,0,0,.15,3.82,4.56,4.56,0,0,0,2.41,2.54,18.3,18.3,0,0,0,4,.62,8.45,8.45,0,0,1,1.23.3,5.73,5.73,0,0,1,.62.25l.55.28a9.17,9.17,0,0,1,2,1.5,6,6,0,0,1,1.37,7,8.76,8.76,0,0,1-1.2,2,6.54,6.54,0,0,1-3.86,2.31,7.27,7.27,0,0,0,3-2.91,8.32,8.32,0,0,0,.73-1.89,5.17,5.17,0,0,0,.19-1.88,4.9,4.9,0,0,0-1.66-3.15,7,7,0,0,0-1.55-1.08L16.65,34a3.12,3.12,0,0,0-.39-.15,5.66,5.66,0,0,0-.9-.21,15.45,15.45,0,0,1-4.54-.9,6.1,6.1,0,0,1-3.17-3.87,6.21,6.21,0,0,1-.19-2.46,7.32,7.32,0,0,1,3.75-5.55Z"/><path class="cls-1" d="M13.68,30.56a4,4,0,0,1-2-.94,3.87,3.87,0,0,1-1.19-2.05,6.65,6.65,0,0,1,.87-4.63,8.75,8.75,0,0,0,1.19-3.6,4.29,4.29,0,0,0-1.12-3.18A5.82,5.82,0,0,0,10,15a5.58,5.58,0,0,0-1.64-.74A2.83,2.83,0,0,0,8,14.18a2.77,2.77,0,0,0-.41,0,4.32,4.32,0,0,0-.87.11,6.12,6.12,0,0,0-1.7.72,8.27,8.27,0,0,0-1.51,1.21A7.28,7.28,0,0,0,2.9,17a3,3,0,0,0-.44.8,2.68,2.68,0,0,0-.11,1.83,1.16,1.16,0,0,0,.54.7,1.17,1.17,0,0,0,1,0,1.24,1.24,0,0,1-1.08.32,1.6,1.6,0,0,1-1-.74,2.7,2.7,0,0,1-.41-1.15,3.91,3.91,0,0,1,0-1.23,4,4,0,0,1,.16-.59,4.23,4.23,0,0,1,.25-.58,7.21,7.21,0,0,1,.61-1A8,8,0,0,1,4.07,13.6a7.1,7.1,0,0,1,2.15-1.17,5.78,5.78,0,0,1,1.25-.26,4.86,4.86,0,0,1,.66,0c.24,0,.5,0,.71.09a7.35,7.35,0,0,1,2.31.92,7.82,7.82,0,0,1,1.91,1.59A6.65,6.65,0,0,1,14.33,17a6.23,6.23,0,0,1,.26,1.27l0,.64a4.48,4.48,0,0,1-.05.64,9.4,9.4,0,0,1-1.81,4.37,5.78,5.78,0,0,0-1.24,3.55,3.28,3.28,0,0,0,.57,1.8A4.43,4.43,0,0,0,13.68,30.56Z"/><path class="cls-1" d="M11.62,32.26A4.93,4.93,0,0,1,7.38,31,4.93,4.93,0,0,1,6,29a6.09,6.09,0,0,1-.21-2.38A8.19,8.19,0,0,1,7.5,22.35a5.18,5.18,0,0,1,1.8-1.46,2.65,2.65,0,0,1,2.23-.14,2.72,2.72,0,0,0-2,.6,5.68,5.68,0,0,0-1.39,1.5,8.25,8.25,0,0,0-.85,1.86,8.68,8.68,0,0,0-.43,2,5.54,5.54,0,0,0,.11,2,4.73,4.73,0,0,0,1,1.69A5.68,5.68,0,0,0,11.62,32.26Z"/><rect class="cls-1" x="8.17" y="29.68" width="0.54" height="1.69" transform="translate(-22.82 35.61) rotate(-83.77)"/><path class="cls-1" d="M8.24,29.27a4,4,0,0,1-.79-.13A5.12,5.12,0,0,0,6.54,29l0-.54a6,6,0,0,1,1,.17,3.62,3.62,0,0,0,.7.12l.06.54Z"/><path class="cls-1" d="M7.93,27.45c-.14-.05-.32-.14-.55-.25s-.5-.25-.81-.38l.21-.5c.32.13.61.27.84.39s.38.19.49.23Z"/><path class="cls-1" d="M7.87,25.72l-.58-.31-.54-.3L7,24.63l.54.3.58.31Z"/><rect class="cls-1" x="7.85" y="22.97" width="0.54" height="1.29" transform="translate(-16.73 21.16) rotate(-65.38)"/><rect class="cls-1" x="8.55" y="22.04" width="0.55" height="1.16" transform="translate(-15.43 21.71) rotate(-66.54)"/><rect class="cls-1" x="9.63" y="20.9" width="0.54" height="0.94" transform="translate(-13.55 19.14) rotate(-59.71)"/><path class="cls-1" d="M16.45,37.63a5.67,5.67,0,0,1,.05,3.24,9.27,9.27,0,0,1-1.41,3,32.15,32.15,0,0,1-4.47,4.69,19.74,19.74,0,0,0-2.11,2.29A9.91,9.91,0,0,0,7,53.5a5.87,5.87,0,0,0-.25,3,3.93,3.93,0,0,0,1.57,2.59,3.79,3.79,0,0,1-2.08-2.45,6,6,0,0,1,0-3.36,9.48,9.48,0,0,1,1.47-3,19.14,19.14,0,0,1,2.19-2.47,50,50,0,0,0,4.54-4.41A10,10,0,0,0,16,40.71,6.31,6.31,0,0,0,16.45,37.63Z"/><path class="cls-1" d="M13.87,42.7a8.38,8.38,0,0,1-1.29,1.9,13.91,13.91,0,0,1-1.71,1.55c-1.21,1-2.5,1.76-3.62,2.75a12.8,12.8,0,0,0-2.79,3.46,8.69,8.69,0,0,0-.83,2.08,5.14,5.14,0,0,0-.17,1.1,3.5,3.5,0,0,0,.15,1.11,3.74,3.74,0,0,1-.24-2.27,8.8,8.8,0,0,1,.72-2.21,11.58,11.58,0,0,1,2.8-3.68,40.54,40.54,0,0,1,3.73-2.67A11.91,11.91,0,0,0,13.87,42.7Z"/><path class="cls-1" d="M1.52,12.4a2.64,2.64,0,0,0,1.59-.27c.5-.22,1-.5,1.5-.74A7.19,7.19,0,0,1,8,10.76a6.71,6.71,0,0,1,3.25,1.07,5.66,5.66,0,0,1,2.16,2.59A6.82,6.82,0,0,0,11,12.2a7.09,7.09,0,0,0-3.07-.9,7.83,7.83,0,0,0-3.17.48c-.51.2-1,.43-1.57.6A2.55,2.55,0,0,1,1.52,12.4Z"/><path class="cls-1" d="M13.52,29.56a2.66,2.66,0,0,0,1.5.1,11.93,11.93,0,0,0,1.47-.4,12.35,12.35,0,0,1,3.2-.56,11.74,11.74,0,0,1,3.24.32,9.34,9.34,0,0,1,3,1.25c-1.07-.17-2.09-.33-3.12-.41a22.34,22.34,0,0,0-3.06-.07,26.45,26.45,0,0,0-3.05.3,7.38,7.38,0,0,1-1.64.1A2.25,2.25,0,0,1,13.52,29.56Z"/><path class="cls-1" d="M18.88,30.79a10.06,10.06,0,0,1,4.37,0,5.05,5.05,0,0,1,2,1,3.4,3.4,0,0,1,1.14,1.88,5.06,5.06,0,0,0-3.27-2.38A27.33,27.33,0,0,0,18.88,30.79Z"/><path class="cls-1" d="M20.39,30.9a2.57,2.57,0,0,1-.91-.81A2.48,2.48,0,0,1,19,29a2.56,2.56,0,0,1,.91.81A2.6,2.6,0,0,1,20.39,30.9Z"/><path class="cls-1" d="M22,30.61a1.35,1.35,0,0,1-.73-.5,1.39,1.39,0,0,1-.29-.84,1.37,1.37,0,0,1,.73.51A1.38,1.38,0,0,1,22,30.61Z"/><path class="cls-1" d="M23.83,31.27a1.16,1.16,0,0,1-.75-.59,1.13,1.13,0,0,1-.12-.94,1.94,1.94,0,0,1,.59.68A2.18,2.18,0,0,1,23.83,31.27Z"/><path class="cls-1" d="M25,31.94a1.06,1.06,0,0,1-.38-.66,1.08,1.08,0,0,1,.17-.75,1,1,0,0,1,.37.66A1,1,0,0,1,25,31.94Z"/><ellipse class="cls-1" cx="3.53" cy="19.52" rx="1.16" ry="0.8" transform="translate(-14.49 11.22) rotate(-55)"/><ellipse class="cls-1" cx="15.52" cy="38.48" rx="1.31" ry="1" transform="translate(-24.91 29.12) rotate(-55)"/><path class="cls-1" d="M0,49.3s.1,0,.24,0H.8a13.72,13.72,0,0,0,1.67-.14,11.17,11.17,0,0,0,2.64-.76l.06,0,.06,0c.07,0,.14,0,.13-.06a11.48,11.48,0,0,0,3-1.85l.26-.23.31-.28.48-.45c.29-.26.5-.45.73-.62a8.08,8.08,0,0,0,1.71-1.74c1.47-2.25,1-2.84,1-2.8,0-.13-.21-.23-.3-.33a1.27,1.27,0,0,1-.39-.78.76.76,0,0,1,.25-.53,2.19,2.19,0,0,1,.25-.2c-.56-.81-1.12-.26-1.12-.28a2.58,2.58,0,0,1,0-1.17c.69.41.86-.34,1.06-.78a.64.64,0,0,1,.61-.4.74.74,0,0,0-1.11-.21c0-1.1-1.18-1.37-1.76-1.63a1.13,1.13,0,0,1-.53-.46.26.26,0,0,1-.05-.14h0l0,0,.16-.19s0,.05-.11.13l-.16.17a.56.56,0,0,0-.05.08.43.43,0,0,0,0,.12.8.8,0,0,0,.35.68c.56.53,1.31.78,1.1,2.82a3.14,3.14,0,0,0,.47,2.45c-.41.14-.21.47-.17.75v0a1,1,0,0,1,0,.24,2.14,2.14,0,0,1-.17,1.87,8,8,0,0,1-.76,1.3,15.82,15.82,0,0,1-1.66,1.84c-.24.23-.45.4-.6.53l-.14.11A10.87,10.87,0,0,1,5,48.14H5a12.6,12.6,0,0,1-2.49.76c-.62.12-1.25.19-1.74.24l-.61.07-.17,0S0,49.29,0,49.3Z"/><path class="cls-1" d="M24.81,24.64a9.7,9.7,0,0,0-4.4-2.18,7.45,7.45,0,0,0-3.42.12c-2.1.57-2.33,2.6-1.87,2s.29-.12.22.09c-.43,1.65.55,2,1,1.95a.61.61,0,0,0,.44-.94.55.55,0,0,0,.67-.65c-.06-.32-.33-.33-.19-.76.33-1.58,2.31-1.49,2.8-1.44s.66.21.11.2c-1.87-.18-2.7.8-2.52,1.21s.73.34,1.08.16.44-.16.29,0-.4.36-.17.59.87-.23,1.7-.63c1.64-.6,3.48-.16,3.92.65a3.74,3.74,0,0,0-2.81-.61c-.84.13-1.37.52-1.29.91s.47.58,1,.4c0,.36,0,.88,1.2.48a3.3,3.3,0,0,1,3.18.26l.75-.06A11.18,11.18,0,0,0,24.81,24.64Z"/><path class="cls-1" d="M20.9,11.21a7.32,7.32,0,0,1,5.55-3.75,6.21,6.21,0,0,1,2.46.19,6.1,6.1,0,0,1,3.87,3.17,15.45,15.45,0,0,1,.9,4.54,5.66,5.66,0,0,0,.21.9,3.12,3.12,0,0,0,.15.39l.21.43a7,7,0,0,0,1.08,1.55,4.9,4.9,0,0,0,3.15,1.66,5.17,5.17,0,0,0,1.88-.19,8.32,8.32,0,0,0,1.89-.73,7.27,7.27,0,0,0,2.91-3,6.54,6.54,0,0,1-2.31,3.86,8.76,8.76,0,0,1-2,1.2,6,6,0,0,1-7-1.37,9.17,9.17,0,0,1-1.5-2c-.1-.18-.19-.37-.28-.55a5.73,5.73,0,0,1-.25-.62,8.45,8.45,0,0,1-.3-1.23,18.3,18.3,0,0,0-.62-4,4.56,4.56,0,0,0-2.54-2.41,5.85,5.85,0,0,0-3.82-.15A8.49,8.49,0,0,0,20.9,11.21Z"/><path class="cls-1" d="M30.56,13.68a4.43,4.43,0,0,0-1.34-1.58,3.28,3.28,0,0,0-1.8-.57,5.78,5.78,0,0,0-3.55,1.24,9.4,9.4,0,0,1-4.37,1.81,4.48,4.48,0,0,1-.64.05l-.64,0A6.23,6.23,0,0,1,17,14.33a6.65,6.65,0,0,1-2.21-1.27,7.82,7.82,0,0,1-1.59-1.91,7.35,7.35,0,0,1-.92-2.31c-.05-.21-.06-.47-.09-.71a4.86,4.86,0,0,1,0-.66,5.78,5.78,0,0,1,.26-1.25A7.1,7.1,0,0,1,13.6,4.07a8,8,0,0,1,1.71-1.63,7.21,7.21,0,0,1,1-.61,4.23,4.23,0,0,1,.58-.25,4,4,0,0,1,.59-.16,3.91,3.91,0,0,1,1.23,0,2.7,2.7,0,0,1,1.15.41,1.6,1.6,0,0,1,.74,1,1.24,1.24,0,0,1-.32,1.08,1.17,1.17,0,0,0,0-1,1.16,1.16,0,0,0-.7-.54,2.68,2.68,0,0,0-1.83.11,3,3,0,0,0-.8.44,7.28,7.28,0,0,0-.75.64A8.27,8.27,0,0,0,15,5.05a6.12,6.12,0,0,0-.72,1.7,4.32,4.32,0,0,0-.11.87,2.77,2.77,0,0,0,0,.41,2.83,2.83,0,0,0,.07.36A5.58,5.58,0,0,0,15,10a5.82,5.82,0,0,0,1.17,1.38,4.29,4.29,0,0,0,3.18,1.12,8.75,8.75,0,0,0,3.6-1.19,6.65,6.65,0,0,1,4.63-.87,3.87,3.87,0,0,1,2.05,1.19A4,4,0,0,1,30.56,13.68Z"/><path class="cls-1" d="M32.26,11.62A5.68,5.68,0,0,0,30.37,8a4.73,4.73,0,0,0-1.69-1,5.54,5.54,0,0,0-2-.11,8.68,8.68,0,0,0-2,.43,8.25,8.25,0,0,0-1.86.85,5.68,5.68,0,0,0-1.5,1.39,2.72,2.72,0,0,0-.6,2,2.65,2.65,0,0,1,.14-2.23,5.18,5.18,0,0,1,1.46-1.8,8.19,8.19,0,0,1,4.26-1.68A6.09,6.09,0,0,1,29,6a4.93,4.93,0,0,1,2,1.35A4.93,4.93,0,0,1,32.26,11.62Z"/><rect class="cls-1" x="30.25" y="7.6" width="0.54" height="1.69" transform="translate(-0.74 3.36) rotate(-6.22)"/><path class="cls-1" d="M29.27,8.34l-.54-.06a3.75,3.75,0,0,0-.12-.7,5.92,5.92,0,0,1-.17-1l.54,0a5,5,0,0,0,.16.91A3.33,3.33,0,0,1,29.27,8.34Z"/><path class="cls-1" d="M26.94,8.11c0-.11-.13-.28-.23-.49s-.26-.52-.39-.84l.5-.21c.13.31.27.58.38.81s.2.41.25.55Z"/><path class="cls-1" d="M25.24,8.13c-.1-.18-.2-.38-.31-.57s-.2-.38-.3-.55l.48-.26c.1.17.2.36.3.55s.21.39.31.57Z"/><rect class="cls-1" x="23.35" y="7.48" width="0.54" height="1.29" transform="translate(-1.24 10.57) rotate(-24.61)"/><rect class="cls-1" x="22.34" y="8.24" width="0.54" height="1.16" transform="translate(-1.64 9.73) rotate(-23.46)"/><rect class="cls-1" x="21.1" y="9.43" width="0.54" height="0.94" transform="matrix(0.86, -0.5, 0.5, 0.86, -2.08, 12.13)"/><path class="cls-1" d="M37.63,16.45A6.31,6.31,0,0,0,40.71,16a10,10,0,0,0,2.65-1.58,50,50,0,0,0,4.41-4.54,19.14,19.14,0,0,1,2.47-2.19,9.48,9.48,0,0,1,3-1.47,6,6,0,0,1,3.36,0,3.79,3.79,0,0,1,2.45,2.08,3.93,3.93,0,0,0-2.59-1.57,5.87,5.87,0,0,0-3,.25,9.91,9.91,0,0,0-2.65,1.49,19.74,19.74,0,0,0-2.29,2.11,32.15,32.15,0,0,1-4.69,4.47,9.27,9.27,0,0,1-3,1.41A5.67,5.67,0,0,1,37.63,16.45Z"/><path class="cls-1" d="M42.7,13.87a11.91,11.91,0,0,0,3.12-3.25,40.54,40.54,0,0,1,2.67-3.73,11.58,11.58,0,0,1,3.68-2.8,8.8,8.8,0,0,1,2.21-.72,3.74,3.74,0,0,1,2.27.24,3.5,3.5,0,0,0-1.11-.15,5.14,5.14,0,0,0-1.1.17,8.69,8.69,0,0,0-2.08.83A12.8,12.8,0,0,0,48.9,7.25c-1,1.12-1.8,2.41-2.75,3.62a13.91,13.91,0,0,1-1.55,1.71A8.38,8.38,0,0,1,42.7,13.87Z"/><path class="cls-1" d="M12.4,1.52a2.55,2.55,0,0,1,0,1.68c-.17.55-.4,1.06-.6,1.57a7.83,7.83,0,0,0-.48,3.17A7.09,7.09,0,0,0,12.2,11a6.82,6.82,0,0,0,2.22,2.38,5.66,5.66,0,0,1-2.59-2.16A6.71,6.71,0,0,1,10.76,8a7.19,7.19,0,0,1,.63-3.37c.24-.52.52-1,.74-1.5A2.64,2.64,0,0,0,12.4,1.52Z"/><path class="cls-1" d="M29.56,13.52A2.25,2.25,0,0,1,30.19,15a7.38,7.38,0,0,1-.1,1.64,26.45,26.45,0,0,0-.3,3.05,22.34,22.34,0,0,0,.07,3.06c.08,1,.24,2.05.41,3.12a9.34,9.34,0,0,1-1.25-3,11.74,11.74,0,0,1-.32-3.24,12.35,12.35,0,0,1,.56-3.2,11.93,11.93,0,0,0,.4-1.47A2.66,2.66,0,0,0,29.56,13.52Z"/><path class="cls-1" d="M30.79,18.88a27.33,27.33,0,0,0,.51,4.23,5.06,5.06,0,0,0,2.38,3.27,3.4,3.4,0,0,1-1.88-1.14,5.05,5.05,0,0,1-1-2A10.06,10.06,0,0,1,30.79,18.88Z"/><path class="cls-1" d="M30.9,20.39a2.6,2.6,0,0,1-1.13-.46A2.56,2.56,0,0,1,29,19a2.48,2.48,0,0,1,1.13.46A2.57,2.57,0,0,1,30.9,20.39Z"/><path class="cls-1" d="M30.61,22a1.38,1.38,0,0,1-.83-.29,1.37,1.37,0,0,1-.51-.73,1.39,1.39,0,0,1,.84.29A1.35,1.35,0,0,1,30.61,22Z"/><path class="cls-1" d="M31.27,23.83a2.18,2.18,0,0,1-.85-.28,1.94,1.94,0,0,1-.68-.59,1.13,1.13,0,0,1,.94.12A1.16,1.16,0,0,1,31.27,23.83Z"/><path class="cls-1" d="M31.94,25a1,1,0,0,1-.75.16,1,1,0,0,1-.66-.37,1.08,1.08,0,0,1,.75-.17A1.06,1.06,0,0,1,31.94,25Z"/><ellipse class="cls-1" cx="19.52" cy="3.53" rx="1.16" ry="0.8" transform="translate(1.5 11.84) rotate(-35)"/><ellipse class="cls-1" cx="38.48" cy="15.52" rx="1.31" ry="1" transform="translate(-1.94 24.88) rotate(-35)"/><path class="cls-1" d="M49.3,0s0,.1,0,.24,0,.33,0,.56a13.72,13.72,0,0,1-.14,1.67,11.17,11.17,0,0,1-.76,2.64.13.13,0,0,1,0,.06.32.32,0,0,0,0,.06c0,.07,0,.14-.06.13a11.48,11.48,0,0,1-1.85,3l-.23.26-.28.31-.45.48c-.26.29-.45.5-.62.73a8.08,8.08,0,0,1-1.74,1.71c-2.25,1.47-2.84,1-2.8,1-.13,0-.23-.21-.33-.3a1.27,1.27,0,0,0-.78-.39.76.76,0,0,0-.53.25,2.19,2.19,0,0,0-.2.25c-.81-.56-.26-1.12-.28-1.12a2.58,2.58,0,0,0-1.17,0c.41.69-.34.86-.78,1.06a.64.64,0,0,0-.4.61.74.74,0,0,1-.21-1.11c-1.1,0-1.37-1.18-1.63-1.76a1.13,1.13,0,0,0-.46-.53.26.26,0,0,0-.14-.05h0l0,0-.19.16.13-.11.17-.16.08-.05.12,0a.8.8,0,0,1,.68.35c.53.56.78,1.31,2.82,1.1a3.14,3.14,0,0,1,2.45.47c.14-.41.47-.21.75-.17h.26a2.14,2.14,0,0,0,1.87-.17,8,8,0,0,0,1.3-.76,15.82,15.82,0,0,0,1.84-1.66c.23-.24.4-.45.53-.6l.11-.14A10.87,10.87,0,0,0,48.14,5h0a12.6,12.6,0,0,0,.76-2.49c.12-.62.19-1.25.24-1.74,0-.25,0-.46.07-.61l0-.17S49.29,0,49.3,0Z"/><path class="cls-1" d="M26.33,26.49l.06-.75a3.3,3.3,0,0,1-.26-3.18c.4-1.18-.12-1.21-.48-1.2.18-.56,0-.95-.4-1s-.78.45-.91,1.29A3.74,3.74,0,0,0,25,24.43c-.81-.44-1.25-2.28-.65-3.92.4-.83.93-1.37.63-1.7s-.45,0-.59.17-.16.06,0-.29.35-.84-.16-1.08-1.39.65-1.21,2.52c0,.55-.15.38-.2-.11s-.14-2.47,1.44-2.8c.43-.14.44.13.76.19a.55.55,0,0,0,.65-.67.61.61,0,0,0,.94-.44c.07-.41-.3-1.39-1.95-1-.21.07-.73.23-.09-.22s-1.4-.23-2,1.87a7.45,7.45,0,0,0-.12,3.42,9.7,9.7,0,0,0,2.18,4.4A11.18,11.18,0,0,0,26.33,26.49Z"/><rect class="cls-1" x="57.79" y="11.31" width="5.12" height="2.72"/><rect class="cls-1" x="61.47" y="16.07" width="1.44" height="0.54"/><rect class="cls-1" x="14.93" y="54.24" width="0.54" height="1.44"/><rect class="cls-1" x="10.16" y="50.56" width="2.72" height="5.12"/></g></g></svg>