<svg xmlns="http://www.w3.org/2000/svg" viewBox="0 0 61.37 59.06"><defs><style>.cls-1{fill:#d6cf92;}</style></defs><title>アセット 15</title><g id="レイヤー_2" data-name="レイヤー 2"><g id="レイヤー_1-2" data-name="レイヤー 1"><path class="cls-1" d="M50.16,20.9a8.49,8.49,0,0,1,2.09,3.65,5.85,5.85,0,0,1-.15,3.82,4.56,4.56,0,0,1-2.41,2.54,18.3,18.3,0,0,1-4,.62,8.15,8.15,0,0,0-1.23.3,5.73,5.73,0,0,0-.62.25l-.55.28a9.17,9.17,0,0,0-2,1.5,6.39,6.39,0,0,0-1.93,4.58,6.21,6.21,0,0,0,.56,2.39,8.76,8.76,0,0,0,1.2,2A6.54,6.54,0,0,0,45,45.16a7.27,7.27,0,0,1-3-2.91,7.88,7.88,0,0,1-.73-1.89,5.17,5.17,0,0,1-.19-1.88,4.9,4.9,0,0,1,1.66-3.15,7,7,0,0,1,1.55-1.08l.43-.21a3.12,3.12,0,0,1,.39-.15,5.66,5.66,0,0,1,.9-.21,15.45,15.45,0,0,0,4.54-.9,6.1,6.1,0,0,0,3.17-3.87,6.21,6.21,0,0,0,.19-2.46,7.32,7.32,0,0,0-3.75-5.55Z"/><path class="cls-1" d="M47.69,30.56a4,4,0,0,0,2-.94,3.87,3.87,0,0,0,1.19-2.05A6.65,6.65,0,0,0,50,22.94a8.75,8.75,0,0,1-1.19-3.6A4.25,4.25,0,0,1,50,16.16,5.82,5.82,0,0,1,51.34,15,5.64,5.64,0,0,1,53,14.25a3,3,0,0,1,.37-.07,2.77,2.77,0,0,1,.41,0,4.32,4.32,0,0,1,.87.11,6.25,6.25,0,0,1,1.7.72,8.27,8.27,0,0,1,1.51,1.21,7.28,7.28,0,0,1,.64.75,3,3,0,0,1,.44.8A2.68,2.68,0,0,1,59,19.59a1.16,1.16,0,0,1-.54.7,1.19,1.19,0,0,1-1,0,1.24,1.24,0,0,0,1.08.32,1.59,1.59,0,0,0,1-.74A2.7,2.7,0,0,0,60,18.71a3.91,3.91,0,0,0,0-1.23,4,4,0,0,0-.16-.59,4.23,4.23,0,0,0-.25-.58,7.21,7.21,0,0,0-.61-1A8,8,0,0,0,57.3,13.6a7.1,7.1,0,0,0-2.15-1.17,5.75,5.75,0,0,0-1.26-.26,4.72,4.72,0,0,0-.66,0c-.23,0-.49,0-.7.09a7.35,7.35,0,0,0-2.31.92,7.82,7.82,0,0,0-1.91,1.59A6.65,6.65,0,0,0,47,17a5.62,5.62,0,0,0-.26,1.27l0,.64a4.48,4.48,0,0,0,0,.64,9.4,9.4,0,0,0,1.81,4.37,5.85,5.85,0,0,1,1.24,3.55,3.28,3.28,0,0,1-.57,1.8A4.52,4.52,0,0,1,47.69,30.56Z"/><path class="cls-1" d="M49.75,32.26A5.17,5.17,0,0,0,55.34,29a6.09,6.09,0,0,0,.21-2.38,8.19,8.19,0,0,0-1.68-4.26,5.18,5.18,0,0,0-1.8-1.46,2.65,2.65,0,0,0-2.23-.14,2.72,2.72,0,0,1,2,.6,5.68,5.68,0,0,1,1.39,1.5A8.25,8.25,0,0,1,54,24.71a8.68,8.68,0,0,1,.43,2,5.54,5.54,0,0,1-.11,2,4.73,4.73,0,0,1-1,1.69A5.68,5.68,0,0,1,49.75,32.26Z"/><rect class="cls-1" x="52.08" y="30.25" width="1.69" height="0.54" transform="translate(-3.02 5.97) rotate(-6.28)"/><path class="cls-1" d="M53.13,29.27H53l.06-.54a3.62,3.62,0,0,0,.7-.12,5.92,5.92,0,0,1,1-.17l0,.54a5.23,5.23,0,0,0-.92.16A3.82,3.82,0,0,1,53.13,29.27Z"/><path class="cls-1" d="M53.44,27.45l-.18-.51c.11,0,.28-.13.49-.23s.52-.26.84-.39l.21.5c-.31.13-.58.27-.81.38S53.58,27.4,53.44,27.45Z"/><path class="cls-1" d="M53.5,25.72l-.26-.48.58-.31.54-.3.26.48-.54.3Z"/><rect class="cls-1" x="52.6" y="23.35" width="1.29" height="0.54" transform="translate(-5 24.32) rotate(-24.61)"/><rect class="cls-1" x="51.97" y="22.34" width="1.16" height="0.55" transform="translate(-4.66 22.79) rotate(-23.46)"/><rect class="cls-1" x="51" y="21.1" width="0.94" height="0.54" transform="translate(-3.75 28.86) rotate(-30.27)"/><path class="cls-1" d="M44.92,37.63a5.67,5.67,0,0,0-.05,3.24,9.27,9.27,0,0,0,1.41,3,32.15,32.15,0,0,0,4.47,4.69,20.67,20.67,0,0,1,2.11,2.29,9.91,9.91,0,0,1,1.49,2.65,5.86,5.86,0,0,1,.24,3A3.88,3.88,0,0,1,53,59.06a3.79,3.79,0,0,0,2.08-2.45,6,6,0,0,0,0-3.36,9.48,9.48,0,0,0-1.47-3,19.14,19.14,0,0,0-2.19-2.47A51.49,51.49,0,0,1,47,43.36a10,10,0,0,1-1.57-2.65A6.31,6.31,0,0,1,44.92,37.63Z"/><path class="cls-1" d="M47.5,42.7a8.38,8.38,0,0,0,1.29,1.9,13.91,13.91,0,0,0,1.71,1.55c1.21,1,2.5,1.76,3.62,2.75a12.8,12.8,0,0,1,2.79,3.46,8.69,8.69,0,0,1,.83,2.08,5.14,5.14,0,0,1,.17,1.1,3.5,3.5,0,0,1-.15,1.11A3.74,3.74,0,0,0,58,54.38a8.8,8.8,0,0,0-.72-2.21,11.58,11.58,0,0,0-2.8-3.68,40.54,40.54,0,0,0-3.73-2.67A11.91,11.91,0,0,1,47.5,42.7Z"/><path class="cls-1" d="M59.85,12.4a2.64,2.64,0,0,1-1.59-.27c-.5-.22-1-.5-1.5-.74a7.19,7.19,0,0,0-3.37-.63,6.71,6.71,0,0,0-3.25,1.07A5.66,5.66,0,0,0,48,14.42a6.82,6.82,0,0,1,2.38-2.22,7.09,7.09,0,0,1,3.07-.9,7.83,7.83,0,0,1,3.17.48c.51.2,1,.43,1.57.6A2.55,2.55,0,0,0,59.85,12.4Z"/><path class="cls-1" d="M47.85,29.56a2.67,2.67,0,0,1-1.5.1,11.93,11.93,0,0,1-1.47-.4,12.35,12.35,0,0,0-3.2-.56,11.74,11.74,0,0,0-3.24.32,9.34,9.34,0,0,0-3,1.25c1.07-.17,2.09-.33,3.11-.41a22.41,22.41,0,0,1,3.06-.07,26.62,26.62,0,0,1,3.06.3,7.38,7.38,0,0,0,1.64.1A2.25,2.25,0,0,0,47.85,29.56Z"/><path class="cls-1" d="M42.49,30.79a10.06,10.06,0,0,0-4.37,0,5.05,5.05,0,0,0-2,1A3.34,3.34,0,0,0,35,33.68a5.06,5.06,0,0,1,3.27-2.38A27.33,27.33,0,0,1,42.49,30.79Z"/><path class="cls-1" d="M41,30.9a2.57,2.57,0,0,0,.91-.81A2.48,2.48,0,0,0,42.35,29a2.56,2.56,0,0,0-.91.81A2.48,2.48,0,0,0,41,30.9Z"/><path class="cls-1" d="M39.36,30.61a1.35,1.35,0,0,0,.73-.5,1.39,1.39,0,0,0,.29-.84,1.37,1.37,0,0,0-.73.51A1.38,1.38,0,0,0,39.36,30.61Z"/><path class="cls-1" d="M37.54,31.27a1.25,1.25,0,0,0,.87-1.53,1.94,1.94,0,0,0-.59.68A2.18,2.18,0,0,0,37.54,31.27Z"/><path class="cls-1" d="M36.37,31.94a1,1,0,0,0,.37-.66,1,1,0,0,0-.16-.75,1,1,0,0,0-.37.66A1,1,0,0,0,36.37,31.94Z"/><ellipse class="cls-1" cx="57.84" cy="19.52" rx="0.8" ry="1.16" transform="translate(-0.74 36.7) rotate(-35)"/><ellipse class="cls-1" cx="45.85" cy="38.48" rx="1" ry="1.31" transform="translate(-13.78 33.26) rotate(-35)"/><path class="cls-1" d="M61.37,49.3s-.1,0-.24,0h-.56a13.72,13.72,0,0,1-1.67-.14,11.17,11.17,0,0,1-2.64-.76l-.06,0-.06,0c-.07,0-.15,0-.13-.06a11.15,11.15,0,0,1-2.95-1.85l-.26-.23-.31-.28L52,45.49c-.29-.26-.51-.45-.73-.62a7.85,7.85,0,0,1-1.71-1.74c-1.47-2.25-1-2.84-1-2.8,0-.13.21-.23.3-.33a1.27,1.27,0,0,0,.39-.78.76.76,0,0,0-.25-.53,1.64,1.64,0,0,0-.26-.2c.57-.81,1.13-.26,1.13-.28a2.58,2.58,0,0,0,0-1.17c-.69.41-.86-.34-1.06-.78a.64.64,0,0,0-.61-.4.72.72,0,0,1,1.1-.21c0-1.1,1.19-1.37,1.77-1.63a1.13,1.13,0,0,0,.53-.46.39.39,0,0,0,0-.14h0l-.05,0-.17-.19.12.13.16.17a.2.2,0,0,1,0,.08.24.24,0,0,1,0,.12.8.8,0,0,1-.35.68c-.56.53-1.31.78-1.1,2.82a3.14,3.14,0,0,1-.47,2.45c.41.14.2.47.17.75v0a1,1,0,0,0,0,.24,2.14,2.14,0,0,0,.17,1.87,8,8,0,0,0,.76,1.3,15,15,0,0,0,1.66,1.84c.24.23.45.4.6.53l.14.11a10.87,10.87,0,0,0,3.07,1.88h0a12.6,12.6,0,0,0,2.49.76c.62.12,1.25.19,1.74.24l.6.07.18,0S61.38,49.29,61.37,49.3Z"/><path class="cls-1" d="M34.88,26.33l.75.06a3.28,3.28,0,0,1,3.17-.26C40,26.53,40,26,40,25.65c.57.18,1,0,1-.4s-.45-.78-1.29-.91a3.74,3.74,0,0,0-2.81.61c.43-.81,2.28-1.25,3.92-.65.83.4,1.37.93,1.7.63s0-.45-.18-.59-.05-.16.3,0,.84.35,1.08-.16-.65-1.39-2.52-1.21c-.55,0-.38-.15.11-.2s2.46-.14,2.8,1.44c.14.43-.13.44-.19.76a.55.55,0,0,0,.67.65.61.61,0,0,0,.44.94c.41.07,1.39-.3,1-1.95-.07-.21-.23-.73.22-.09s.23-1.4-1.87-2A7.45,7.45,0,0,0,41,22.46a9.7,9.7,0,0,0-4.4,2.18A11.18,11.18,0,0,0,34.88,26.33Z"/><path class="cls-1" d="M40.47,11.21a7.32,7.32,0,0,0-5.55-3.75,6.21,6.21,0,0,0-2.46.19,6.1,6.1,0,0,0-3.87,3.17,15.45,15.45,0,0,0-.9,4.54,5.66,5.66,0,0,1-.21.9,3.12,3.12,0,0,1-.15.39l-.21.43A7,7,0,0,1,26,18.63a4.9,4.9,0,0,1-3.15,1.66A5.25,5.25,0,0,1,21,20.1a8.42,8.42,0,0,1-1.88-.73,7.27,7.27,0,0,1-2.91-3,6.57,6.57,0,0,0,2.3,3.86,9,9,0,0,0,2,1.2,6.4,6.4,0,0,0,2.39.56,6.43,6.43,0,0,0,4.58-1.93,9.17,9.17,0,0,0,1.5-2c.1-.18.19-.37.28-.55a5.73,5.73,0,0,0,.25-.62,8.45,8.45,0,0,0,.3-1.23,18.3,18.3,0,0,1,.62-4A4.56,4.56,0,0,1,33,9.27a5.85,5.85,0,0,1,3.82-.15A8.49,8.49,0,0,1,40.47,11.21Z"/><path class="cls-1" d="M30.81,13.68a4.43,4.43,0,0,1,1.34-1.58,3.25,3.25,0,0,1,1.8-.57,5.78,5.78,0,0,1,3.55,1.24,9.4,9.4,0,0,0,4.37,1.81,4.46,4.46,0,0,0,.63.05l.65,0a6.23,6.23,0,0,0,1.27-.26,6.65,6.65,0,0,0,2.21-1.27,7.82,7.82,0,0,0,1.59-1.91,7.35,7.35,0,0,0,.92-2.31c0-.21.06-.47.09-.71s0-.44,0-.66a5.78,5.78,0,0,0-.26-1.25,7.33,7.33,0,0,0-1.17-2.15,8,8,0,0,0-1.71-1.63,7.21,7.21,0,0,0-1-.61,4.23,4.23,0,0,0-.58-.25,4,4,0,0,0-.59-.16,3.91,3.91,0,0,0-1.23,0,2.7,2.7,0,0,0-1.15.41,1.6,1.6,0,0,0-.74,1,1.24,1.24,0,0,0,.32,1.08,1.14,1.14,0,0,1,0-1,1.16,1.16,0,0,1,.7-.54,2.68,2.68,0,0,1,1.83.11,3,3,0,0,1,.8.44,6.28,6.28,0,0,1,.74.64,7.92,7.92,0,0,1,1.22,1.51,6.12,6.12,0,0,1,.72,1.7,4.32,4.32,0,0,1,.11.87,2.77,2.77,0,0,1,0,.41,2.83,2.83,0,0,1-.07.36A5.58,5.58,0,0,1,46.38,10a5.82,5.82,0,0,1-1.17,1.38A4.3,4.3,0,0,1,42,12.53a8.75,8.75,0,0,1-3.6-1.19,6.65,6.65,0,0,0-4.63-.87,3.94,3.94,0,0,0-2.06,1.19A4.06,4.06,0,0,0,30.81,13.68Z"/><path class="cls-1" d="M29.11,11.62A5.68,5.68,0,0,1,31,8a4.73,4.73,0,0,1,1.69-1,5.53,5.53,0,0,1,2-.11,8.68,8.68,0,0,1,2,.43,8.25,8.25,0,0,1,1.86.85A5.68,5.68,0,0,1,40,9.57a2.72,2.72,0,0,1,.6,2,2.65,2.65,0,0,0-.14-2.23A5.18,5.18,0,0,0,39,7.5a8.19,8.19,0,0,0-4.26-1.68A6.08,6.08,0,0,0,32.38,6a4.93,4.93,0,0,0-2,1.35A4.93,4.93,0,0,0,29.11,11.62Z"/><rect class="cls-1" x="30" y="8.17" width="1.69" height="0.54" transform="translate(19.07 38.18) rotate(-83.72)"/><path class="cls-1" d="M32.1,8.34a3.33,3.33,0,0,1,.13-.89,5,5,0,0,0,.16-.91l.54,0a5.92,5.92,0,0,1-.17,1,3.06,3.06,0,0,0-.12.7Z"/><path class="cls-1" d="M34.43,8.11l-.51-.18c0-.14.14-.32.25-.55s.25-.5.38-.81l.5.21c-.13.32-.27.61-.39.84S34.47,8,34.43,8.11Z"/><path class="cls-1" d="M36.13,8.13l-.48-.26.3-.56c.11-.19.21-.39.31-.57l.48.27c-.1.17-.2.37-.31.56S36.22,8,36.13,8.13Z"/><rect class="cls-1" x="37.11" y="7.85" width="1.29" height="0.54" transform="translate(14.65 39.06) rotate(-65.39)"/><rect class="cls-1" x="38.17" y="8.55" width="1.16" height="0.55" transform="translate(15.23 40.86) rotate(-66.54)"/><rect class="cls-1" x="39.53" y="9.63" width="0.94" height="0.54" transform="translate(11.29 39.45) rotate(-59.73)"/><path class="cls-1" d="M23.74,16.45A6.31,6.31,0,0,1,20.66,16,10,10,0,0,1,18,14.41,50,50,0,0,1,13.6,9.87a19.14,19.14,0,0,0-2.47-2.19,9.48,9.48,0,0,0-3-1.47,6,6,0,0,0-3.36,0A3.79,3.79,0,0,0,2.31,8.34,3.93,3.93,0,0,1,4.9,6.77a5.87,5.87,0,0,1,3,.25,9.91,9.91,0,0,1,2.65,1.49,19.74,19.74,0,0,1,2.29,2.11,32.15,32.15,0,0,0,4.69,4.47,9.27,9.27,0,0,0,3,1.41A5.67,5.67,0,0,0,23.74,16.45Z"/><path class="cls-1" d="M18.66,13.87a12,12,0,0,1-3.11-3.25,40.54,40.54,0,0,0-2.67-3.73,11.51,11.51,0,0,0-3.69-2.8A8.6,8.6,0,0,0,7,3.37a3.74,3.74,0,0,0-2.27.24,3.5,3.5,0,0,1,1.11-.15,5.14,5.14,0,0,1,1.1.17A8.69,8.69,0,0,1,9,4.46a13,13,0,0,1,3.46,2.79c1,1.12,1.8,2.41,2.75,3.62a13.91,13.91,0,0,0,1.55,1.71A8.55,8.55,0,0,0,18.66,13.87Z"/><path class="cls-1" d="M49,1.52A2.55,2.55,0,0,0,49,3.2c.17.55.4,1.06.6,1.57a8,8,0,0,1,.48,3.17,7.23,7.23,0,0,1-.9,3.07A6.82,6.82,0,0,1,47,13.39a5.66,5.66,0,0,0,2.59-2.16A6.82,6.82,0,0,0,50.61,8,7.32,7.32,0,0,0,50,4.61c-.24-.52-.52-1-.74-1.5A2.64,2.64,0,0,1,49,1.52Z"/><path class="cls-1" d="M31.81,13.52A2.25,2.25,0,0,0,31.18,15a7.38,7.38,0,0,0,.1,1.64,26.45,26.45,0,0,1,.3,3.05,22.34,22.34,0,0,1-.07,3.06c-.08,1-.24,2.05-.41,3.12a9.34,9.34,0,0,0,1.25-3,11.74,11.74,0,0,0,.32-3.24,12.35,12.35,0,0,0-.56-3.2,11.93,11.93,0,0,1-.4-1.47A2.58,2.58,0,0,1,31.81,13.52Z"/><path class="cls-1" d="M30.58,18.88a28.61,28.61,0,0,1-.51,4.23,5.06,5.06,0,0,1-2.38,3.27,3.4,3.4,0,0,0,1.88-1.14,5.05,5.05,0,0,0,1-2A10.06,10.06,0,0,0,30.58,18.88Z"/><path class="cls-1" d="M30.47,20.39a2.6,2.6,0,0,0,1.13-.46,2.56,2.56,0,0,0,.81-.91,2.48,2.48,0,0,0-1.13.46A2.57,2.57,0,0,0,30.47,20.39Z"/><path class="cls-1" d="M30.76,22a1.38,1.38,0,0,0,.83-.29A1.42,1.42,0,0,0,32.1,21a1.39,1.39,0,0,0-.84.29A1.35,1.35,0,0,0,30.76,22Z"/><path class="cls-1" d="M30.1,23.83a2.18,2.18,0,0,0,.85-.28,1.94,1.94,0,0,0,.68-.59,1.16,1.16,0,0,0-.95.12A1.18,1.18,0,0,0,30.1,23.83Z"/><path class="cls-1" d="M29.43,25a1,1,0,0,0,.74.16,1,1,0,0,0,.67-.37,1.08,1.08,0,0,0-.75-.17A1.06,1.06,0,0,0,29.43,25Z"/><ellipse class="cls-1" cx="41.85" cy="3.53" rx="0.8" ry="1.16" transform="translate(14.95 35.78) rotate(-55)"/><ellipse class="cls-1" cx="22.89" cy="15.52" rx="1" ry="1.31" transform="translate(-2.96 25.37) rotate(-55)"/><path class="cls-1" d="M12.07,0s0,.1,0,.24,0,.33,0,.56a13.72,13.72,0,0,0,.14,1.67A11.17,11.17,0,0,0,13,5.11a.13.13,0,0,0,0,.06l0,.06c0,.07,0,.14.06.13a11.48,11.48,0,0,0,1.85,3l.23.26.28.31.45.48c.26.29.44.5.62.73a8.08,8.08,0,0,0,1.74,1.71c2.25,1.47,2.84,1,2.8,1,.13,0,.23-.21.33-.3a1.27,1.27,0,0,1,.78-.39.76.76,0,0,1,.53.25,2.19,2.19,0,0,1,.2.25c.81-.56.26-1.12.28-1.12a2.59,2.59,0,0,1,1.17,0c-.41.69.34.86.78,1.06a.66.66,0,0,1,.4.61.74.74,0,0,0,.21-1.11c1.1,0,1.37-1.18,1.63-1.76a1.13,1.13,0,0,1,.46-.53A.26.26,0,0,1,28,9.79h0l.05,0,.19.16-.13-.11a1.2,1.2,0,0,1-.17-.16l-.08-.05-.12,0A.8.8,0,0,0,27,10c-.53.56-.78,1.31-2.82,1.1a3.14,3.14,0,0,0-2.45.47c-.14-.41-.47-.21-.75-.17h-.26a2.17,2.17,0,0,1-1.88-.17,8.39,8.39,0,0,1-1.29-.76,15,15,0,0,1-1.84-1.66c-.23-.24-.41-.45-.53-.6l-.11-.14A10.87,10.87,0,0,1,13.23,5h0a12.6,12.6,0,0,1-.76-2.49c-.12-.62-.19-1.25-.24-1.74,0-.25-.05-.46-.07-.61L12.11,0S12.08,0,12.07,0Z"/><path class="cls-1" d="M36.73,24.81a9.7,9.7,0,0,0,2.18-4.4A7.59,7.59,0,0,0,38.79,17c-.57-2.1-2.6-2.33-2-1.87s.12.29-.09.22c-1.65-.43-2,.55-1.95,1a.61.61,0,0,0,.94.44.55.55,0,0,0,.65.67c.32-.06.33-.33.76-.19,1.57.33,1.49,2.31,1.44,2.8s-.21.66-.2.11c.17-1.87-.8-2.7-1.21-2.52s-.34.73-.16,1.08.16.44,0,.29-.35-.4-.58-.17.23.87.63,1.7c.59,1.64.16,3.48-.65,3.92A3.74,3.74,0,0,0,37,21.62c-.13-.84-.52-1.37-.91-1.29s-.59.47-.4,1c-.36,0-.88,0-.48,1.2A3.33,3.33,0,0,1,35,25.74l.06.75A11.18,11.18,0,0,0,36.73,24.81Z"/><rect class="cls-1" y="16.07" width="1.44" height="0.54"/><rect class="cls-1" y="11.31" width="5.12" height="2.72"/><rect class="cls-1" x="44.6" y="54.24" width="0.54" height="1.44"/><rect class="cls-1" x="47.19" y="50.56" width="2.72" height="5.12"/></g></g></svg>