<svg xmlns="http://www.w3.org/2000/svg" viewBox="0 0 130.5 130.5"><defs><style>.cls-1{fill:#a5140e;}.cls-2{font-size:23px;fill:#86772a;font-family:CrimsonText-Regular, Crimson Text;letter-spacing:0.11em;}.cls-3{fill:#fff;}.cls-4{fill:#ffed8d;}</style></defs><title>アセット 4</title><g id="レイヤー_2" data-name="レイヤー 2"><g id="レイヤー_1-2" data-name="レイヤー 1"><rect class="cls-1" width="130.5" height="130.5" rx="16.74"/><text class="cls-2" transform="translate(14.61 40.08)">GRAPPA</text><path class="cls-3" d="M67,104.58c-.25-2.78-.71-9.22-.71-18A27.27,27.27,0,0,1,66.55,83a15.28,15.28,0,0,0,3.53-1,5.83,5.83,0,0,0,.91-.43c4.35-2.69,6.68-9.5,5.41-15,0,0-3.16-10.47-3.66-14.74a5.31,5.31,0,0,1,.44-3.23H57.33a16.73,16.73,0,0,1,.34,3.17c0,3.69-3.59,14.32-3.59,14.32-1.2,5.52,1,12.77,5.36,15.48a5.55,5.55,0,0,0,1.05.48,15.32,15.32,0,0,0,3.87,1,21.61,21.61,0,0,1,.33,3.75c0,7.25-.23,11.91-.49,14.84l-.41,3c-2.58.89-6.35,3.27-6.35,4.24H73.28C73.28,107.78,69.58,105.46,67,104.58Z"/><path class="cls-4" d="M54.75,67.32c-.56,4.89,1.48,10.73,5.15,13a4.68,4.68,0,0,0,1,.45,12.82,12.82,0,0,0,4.39.93,12.14,12.14,0,0,0,4.45-1,5,5,0,0,0,.84-.4c3.68-2.27,5.73-8.11,5.18-13Z"/></g></g></svg>